M48
; DRILL file {KiCad (5.1.4)-1} date 2/10/2020 9:29:43 PM
; FORMAT={-:-/ absolute / inch / decimal}
; #@! TF.CreationDate,2020-02-10T21:29:43-05:00
; #@! TF.GenerationSoftware,Kicad,Pcbnew,(5.1.4)-1
FMAT,2
INCH
T1C0.0157
T2C0.0289
T3C0.0300
T4C0.0394
T5C0.0400
T6C0.0984
%
G90
G05
T1
X1.78Y-2.4
X2.24Y-2.4
X2.34Y-2.4
X2.38Y-2.26
X2.44Y-2.18
X2.457Y-3.663
X2.48Y-2.26
X2.6132Y-2.5468
X2.82Y-3.54
X3.08Y-3.74
X3.22Y-2.4
X3.32Y-2.4
X3.42Y-2.22
X3.42Y-2.4
X3.5932Y-2.5468
X3.76Y-3.44
X4.2Y-2.4
X4.3Y-2.4
X4.4Y-2.22
X4.4Y-2.4
X4.58Y-2.54
X4.82Y-3.42
X5.18Y-2.4
X5.28Y-2.4
X5.38Y-2.22
X5.38Y-2.4
X5.5532Y-2.5468
X5.72Y-3.44
X6.16Y-2.4
X6.26Y-2.4
X6.36Y-2.22
X6.36Y-2.4
X6.5332Y-2.5468
X6.74Y-3.42
X7.14Y-2.4
X7.24Y-2.4
X7.34Y-2.22
X7.34Y-2.4
X7.5132Y-2.5468
X7.68Y-3.44
T2
X6.92Y-2.7278
X6.92Y-3.0322
X7.02Y-2.7278
X7.02Y-3.0322
X7.12Y-2.7278
X7.12Y-3.0322
X7.22Y-2.7278
X7.22Y-3.0322
X7.32Y-2.7278
X7.32Y-3.0322
X7.42Y-2.7278
X7.42Y-3.0322
X7.52Y-2.7278
X7.52Y-3.0322
X7.62Y-2.7278
X7.62Y-3.0322
X7.72Y-2.7278
X7.72Y-3.0322
X2.02Y-2.7278
X2.02Y-3.0322
X2.12Y-2.7278
X2.12Y-3.0322
X2.22Y-2.7278
X2.22Y-3.0322
X2.32Y-2.7278
X2.32Y-3.0322
X2.42Y-2.7278
X2.42Y-3.0322
X2.52Y-2.7278
X2.52Y-3.0322
X2.62Y-2.7278
X2.62Y-3.0322
X2.72Y-2.7278
X2.72Y-3.0322
X2.82Y-2.7278
X2.82Y-3.0322
X4.96Y-2.7278
X4.96Y-3.0322
X5.06Y-2.7278
X5.06Y-3.0322
X5.16Y-2.7278
X5.16Y-3.0322
X5.26Y-2.7278
X5.26Y-3.0322
X5.36Y-2.7278
X5.36Y-3.0322
X5.46Y-2.7278
X5.46Y-3.0322
X5.56Y-2.7278
X5.56Y-3.0322
X5.66Y-2.7278
X5.66Y-3.0322
X5.76Y-2.7278
X5.76Y-3.0322
X5.94Y-2.7278
X5.94Y-3.0322
X6.04Y-2.7278
X6.04Y-3.0322
X6.14Y-2.7278
X6.14Y-3.0322
X6.24Y-2.7278
X6.24Y-3.0322
X6.34Y-2.7278
X6.34Y-3.0322
X6.44Y-2.7278
X6.44Y-3.0322
X6.54Y-2.7278
X6.54Y-3.0322
X6.64Y-2.7278
X6.64Y-3.0322
X6.74Y-2.7278
X6.74Y-3.0322
X3.98Y-2.7278
X3.98Y-3.0322
X4.08Y-2.7278
X4.08Y-3.0322
X4.18Y-2.7278
X4.18Y-3.0322
X4.28Y-2.7278
X4.28Y-3.0322
X4.38Y-2.7278
X4.38Y-3.0322
X4.48Y-2.7278
X4.48Y-3.0322
X4.58Y-2.7278
X4.58Y-3.0322
X4.68Y-2.7278
X4.68Y-3.0322
X4.78Y-2.7278
X4.78Y-3.0322
X3.0Y-2.7278
X3.0Y-3.0322
X3.1Y-2.7278
X3.1Y-3.0322
X3.2Y-2.7278
X3.2Y-3.0322
X3.3Y-2.7278
X3.3Y-3.0322
X3.4Y-2.7278
X3.4Y-3.0322
X3.5Y-2.7278
X3.5Y-3.0322
X3.6Y-2.7278
X3.6Y-3.0322
X3.7Y-2.7278
X3.7Y-3.0322
X3.8Y-2.7278
X3.8Y-3.0322
T3
X0.78Y-3.29
X0.78Y-3.91
X1.9Y-3.29
X1.9Y-3.91
T4
X6.1518Y-3.5389
X6.1518Y-3.6611
X6.213Y-3.767
X6.213Y-3.433
X6.3189Y-3.3718
X6.4411Y-3.8282
X6.4411Y-3.3718
X6.547Y-3.767
X6.547Y-3.433
X6.6082Y-3.5389
X6.6082Y-3.6611
X7.0518Y-3.5389
X7.0518Y-3.6611
X7.113Y-3.767
X7.113Y-3.433
X7.2189Y-3.3718
X7.3411Y-3.8282
X7.3411Y-3.3718
X7.447Y-3.767
X7.447Y-3.433
X7.5082Y-3.5389
X7.5082Y-3.6611
X3.1318Y-3.5389
X3.1318Y-3.6611
X3.193Y-3.767
X3.193Y-3.433
X3.2989Y-3.3718
X3.4211Y-3.8282
X3.4211Y-3.3718
X3.527Y-3.767
X3.527Y-3.433
X3.5882Y-3.5389
X3.5882Y-3.6611
X1.48Y-3.5
X1.48Y-3.6
X1.48Y-3.7
X2.2318Y-3.5389
X2.2318Y-3.6611
X2.293Y-3.767
X2.293Y-3.433
X2.3989Y-3.3718
X2.5211Y-3.8282
X2.5211Y-3.3718
X2.627Y-3.767
X2.627Y-3.433
X2.6882Y-3.5389
X2.6882Y-3.6611
X5.0918Y-3.5389
X5.0918Y-3.6611
X5.153Y-3.767
X5.153Y-3.433
X5.2589Y-3.3718
X5.3811Y-3.8282
X5.3811Y-3.3718
X5.487Y-3.767
X5.487Y-3.433
X5.5482Y-3.5389
X5.5482Y-3.6611
X4.1918Y-3.5389
X4.1918Y-3.6611
X4.253Y-3.767
X4.253Y-3.433
X4.3589Y-3.3718
X4.4811Y-3.8282
X4.4811Y-3.3718
X4.587Y-3.767
X4.587Y-3.433
X4.6482Y-3.5389
X4.6482Y-3.6611
T5
X0.9Y-2.23
X0.9Y-3.13
X1.0Y-2.23
X1.0Y-3.13
X1.1Y-2.23
X1.1Y-3.13
X1.2Y-2.23
X1.2Y-3.13
X1.3Y-2.23
X1.3Y-3.13
X1.4Y-2.23
X1.4Y-3.13
X1.5Y-2.23
X1.5Y-3.13
X1.6Y-2.23
X1.6Y-3.13
T6
X0.98Y-4.04
X7.74Y-4.04
X7.74Y-2.14
X2.0Y-2.14
T0
M30
