G04 #@! TF.GenerationSoftware,KiCad,Pcbnew,(5.1.4)-1*
G04 #@! TF.CreationDate,2020-02-10T21:29:40-05:00*
G04 #@! TF.ProjectId,xmas,786d6173-2e6b-4696-9361-645f70636258,rev?*
G04 #@! TF.SameCoordinates,Original*
G04 #@! TF.FileFunction,Soldermask,Bot*
G04 #@! TF.FilePolarity,Negative*
%FSLAX46Y46*%
G04 Gerber Fmt 4.6, Leading zero omitted, Abs format (unit mm)*
G04 Created by KiCad (PCBNEW (5.1.4)-1) date 2020-02-10 21:29:40*
%MOMM*%
%LPD*%
G04 APERTURE LIST*
%ADD10C,2.500000*%
%ADD11C,1.524000*%
%ADD12C,1.524000*%
%ADD13C,1.800000*%
%ADD14C,1.133000*%
%ADD15R,1.133000X1.133000*%
%ADD16R,2.000000X2.000000*%
%ADD17C,2.000000*%
G04 APERTURE END LIST*
D10*
X50800000Y-54356000D03*
X196596000Y-54356000D03*
X196596000Y-102616000D03*
X24892000Y-102616000D03*
D11*
X136680914Y-97235555D03*
D12*
X136807218Y-97706927D02*
X136554610Y-96764183D01*
D11*
X139370640Y-95682641D03*
D12*
X139715708Y-96027709D02*
X139025572Y-95337573D01*
D11*
X140923555Y-92992915D03*
D12*
X141394927Y-93119219D02*
X140452183Y-92866611D01*
D11*
X140923555Y-89887086D03*
D12*
X141394927Y-89760782D02*
X140452183Y-90013390D01*
D11*
X139370641Y-87197360D03*
D12*
X139715709Y-86852292D02*
X139025573Y-87542428D01*
D11*
X136680915Y-85644445D03*
D12*
X136807219Y-85173073D02*
X136554611Y-86115817D01*
D11*
X133575086Y-85644445D03*
D12*
X133448782Y-85173073D02*
X133701390Y-86115817D01*
D11*
X130885360Y-87197359D03*
D12*
X130540292Y-86852291D02*
X131230428Y-87542427D01*
D11*
X129332445Y-89887085D03*
D12*
X128861073Y-89760781D02*
X129803817Y-90013389D01*
D11*
X129332445Y-92992914D03*
D12*
X128861073Y-93119218D02*
X129803817Y-92866610D01*
D11*
X130885359Y-95682640D03*
D12*
X130540291Y-96027708D02*
X131230427Y-95337572D01*
D11*
X163604914Y-97235555D03*
D12*
X163731218Y-97706927D02*
X163478610Y-96764183D01*
D11*
X166294640Y-95682641D03*
D12*
X166639708Y-96027709D02*
X165949572Y-95337573D01*
D11*
X167847555Y-92992915D03*
D12*
X168318927Y-93119219D02*
X167376183Y-92866611D01*
D11*
X167847555Y-89887086D03*
D12*
X168318927Y-89760782D02*
X167376183Y-90013390D01*
D11*
X166294641Y-87197360D03*
D12*
X166639709Y-86852292D02*
X165949573Y-87542428D01*
D11*
X163604915Y-85644445D03*
D12*
X163731219Y-85173073D02*
X163478611Y-86115817D01*
D11*
X160499086Y-85644445D03*
D12*
X160372782Y-85173073D02*
X160625390Y-86115817D01*
D11*
X157809360Y-87197359D03*
D12*
X157464292Y-86852291D02*
X158154428Y-87542427D01*
D11*
X156256445Y-89887085D03*
D12*
X155785073Y-89760781D02*
X156727817Y-90013389D01*
D11*
X156256445Y-92992914D03*
D12*
X155785073Y-93119218D02*
X156727817Y-92866610D01*
D11*
X157809359Y-95682640D03*
D12*
X157464291Y-96027708D02*
X158154427Y-95337572D01*
D13*
X40640000Y-56642000D03*
X38100000Y-56642000D03*
X35560000Y-56642000D03*
X33020000Y-56642000D03*
X30480000Y-56642000D03*
X27940000Y-56642000D03*
X25400000Y-56642000D03*
X22860000Y-56642000D03*
X22860000Y-79502000D03*
X25400000Y-79502000D03*
X27940000Y-79502000D03*
X30480000Y-79502000D03*
X33020000Y-79502000D03*
X35560000Y-79502000D03*
X38100000Y-79502000D03*
X40640000Y-79502000D03*
D11*
X186464914Y-97235555D03*
D12*
X186591218Y-97706927D02*
X186338610Y-96764183D01*
D11*
X189154640Y-95682641D03*
D12*
X189499708Y-96027709D02*
X188809572Y-95337573D01*
D11*
X190707555Y-92992915D03*
D12*
X191178927Y-93119219D02*
X190236183Y-92866611D01*
D11*
X190707555Y-89887086D03*
D12*
X191178927Y-89760782D02*
X190236183Y-90013390D01*
D11*
X189154641Y-87197360D03*
D12*
X189499709Y-86852292D02*
X188809573Y-87542428D01*
D11*
X186464915Y-85644445D03*
D12*
X186591219Y-85173073D02*
X186338611Y-86115817D01*
D11*
X183359086Y-85644445D03*
D12*
X183232782Y-85173073D02*
X183485390Y-86115817D01*
D11*
X180669360Y-87197359D03*
D12*
X180324292Y-86852291D02*
X181014428Y-87542427D01*
D11*
X179116445Y-89887085D03*
D12*
X178645073Y-89760781D02*
X179587817Y-90013389D01*
D11*
X179116445Y-92992914D03*
D12*
X178645073Y-93119218D02*
X179587817Y-92866610D01*
D11*
X180669359Y-95682640D03*
D12*
X180324291Y-96027708D02*
X181014427Y-95337572D01*
D11*
X113820914Y-97235555D03*
D12*
X113947218Y-97706927D02*
X113694610Y-96764183D01*
D11*
X116510640Y-95682641D03*
D12*
X116855708Y-96027709D02*
X116165572Y-95337573D01*
D11*
X118063555Y-92992915D03*
D12*
X118534927Y-93119219D02*
X117592183Y-92866611D01*
D11*
X118063555Y-89887086D03*
D12*
X118534927Y-89760782D02*
X117592183Y-90013390D01*
D11*
X116510641Y-87197360D03*
D12*
X116855709Y-86852292D02*
X116165573Y-87542428D01*
D11*
X113820915Y-85644445D03*
D12*
X113947219Y-85173073D02*
X113694611Y-86115817D01*
D11*
X110715086Y-85644445D03*
D12*
X110588782Y-85173073D02*
X110841390Y-86115817D01*
D11*
X108025360Y-87197359D03*
D12*
X107680292Y-86852291D02*
X108370428Y-87542427D01*
D11*
X106472445Y-89887085D03*
D12*
X106001073Y-89760781D02*
X106943817Y-90013389D01*
D11*
X106472445Y-92992914D03*
D12*
X106001073Y-93119218D02*
X106943817Y-92866610D01*
D11*
X108025359Y-95682640D03*
D12*
X107680291Y-96027708D02*
X108370427Y-95337572D01*
D11*
X86896914Y-97235555D03*
D12*
X87023218Y-97706927D02*
X86770610Y-96764183D01*
D11*
X89586640Y-95682641D03*
D12*
X89931708Y-96027709D02*
X89241572Y-95337573D01*
D11*
X91139555Y-92992915D03*
D12*
X91610927Y-93119219D02*
X90668183Y-92866611D01*
D11*
X91139555Y-89887086D03*
D12*
X91610927Y-89760782D02*
X90668183Y-90013390D01*
D11*
X89586641Y-87197360D03*
D12*
X89931709Y-86852292D02*
X89241573Y-87542428D01*
D11*
X86896915Y-85644445D03*
D12*
X87023219Y-85173073D02*
X86770611Y-86115817D01*
D11*
X83791086Y-85644445D03*
D12*
X83664782Y-85173073D02*
X83917390Y-86115817D01*
D11*
X81101360Y-87197359D03*
D12*
X80756292Y-86852291D02*
X81446428Y-87542427D01*
D11*
X79548445Y-89887085D03*
D12*
X79077073Y-89760781D02*
X80019817Y-90013389D01*
D11*
X79548445Y-92992914D03*
D12*
X79077073Y-93119218D02*
X80019817Y-92866610D01*
D11*
X81101359Y-95682640D03*
D12*
X80756291Y-96027708D02*
X81446427Y-95337572D01*
D11*
X64036914Y-97235555D03*
D12*
X64163218Y-97706927D02*
X63910610Y-96764183D01*
D11*
X66726640Y-95682641D03*
D12*
X67071708Y-96027709D02*
X66381572Y-95337573D01*
D11*
X68279555Y-92992915D03*
D12*
X68750927Y-93119219D02*
X67808183Y-92866611D01*
D11*
X68279555Y-89887086D03*
D12*
X68750927Y-89760782D02*
X67808183Y-90013390D01*
D11*
X66726641Y-87197360D03*
D12*
X67071709Y-86852292D02*
X66381573Y-87542428D01*
D11*
X64036915Y-85644445D03*
D12*
X64163219Y-85173073D02*
X63910611Y-86115817D01*
D11*
X60931086Y-85644445D03*
D12*
X60804782Y-85173073D02*
X61057390Y-86115817D01*
D11*
X58241360Y-87197359D03*
D12*
X57896292Y-86852291D02*
X58586428Y-87542427D01*
D11*
X56688445Y-89887085D03*
D12*
X56217073Y-89760781D02*
X57159817Y-90013389D01*
D11*
X56688445Y-92992914D03*
D12*
X56217073Y-93119218D02*
X57159817Y-92866610D01*
D11*
X58241359Y-95682640D03*
D12*
X57896291Y-96027708D02*
X58586427Y-95337572D01*
D14*
X51308000Y-77018000D03*
X53848000Y-77018000D03*
X56388000Y-77018000D03*
X58928000Y-77018000D03*
X61468000Y-77018000D03*
X64008000Y-77018000D03*
X66548000Y-77018000D03*
X69088000Y-77018000D03*
X71628000Y-77018000D03*
X71628000Y-69286000D03*
X69088000Y-69286000D03*
X66548000Y-69286000D03*
X64008000Y-69286000D03*
X61468000Y-69286000D03*
X58928000Y-69286000D03*
X56388000Y-69286000D03*
X53848000Y-69286000D03*
D15*
X51308000Y-69286000D03*
X76200000Y-69286000D03*
D14*
X78740000Y-69286000D03*
X81280000Y-69286000D03*
X83820000Y-69286000D03*
X86360000Y-69286000D03*
X88900000Y-69286000D03*
X91440000Y-69286000D03*
X93980000Y-69286000D03*
X96520000Y-69286000D03*
X96520000Y-77018000D03*
X93980000Y-77018000D03*
X91440000Y-77018000D03*
X88900000Y-77018000D03*
X86360000Y-77018000D03*
X83820000Y-77018000D03*
X81280000Y-77018000D03*
X78740000Y-77018000D03*
X76200000Y-77018000D03*
X101092000Y-77018000D03*
X103632000Y-77018000D03*
X106172000Y-77018000D03*
X108712000Y-77018000D03*
X111252000Y-77018000D03*
X113792000Y-77018000D03*
X116332000Y-77018000D03*
X118872000Y-77018000D03*
X121412000Y-77018000D03*
X121412000Y-69286000D03*
X118872000Y-69286000D03*
X116332000Y-69286000D03*
X113792000Y-69286000D03*
X111252000Y-69286000D03*
X108712000Y-69286000D03*
X106172000Y-69286000D03*
X103632000Y-69286000D03*
D15*
X101092000Y-69286000D03*
X125984000Y-69286000D03*
D14*
X128524000Y-69286000D03*
X131064000Y-69286000D03*
X133604000Y-69286000D03*
X136144000Y-69286000D03*
X138684000Y-69286000D03*
X141224000Y-69286000D03*
X143764000Y-69286000D03*
X146304000Y-69286000D03*
X146304000Y-77018000D03*
X143764000Y-77018000D03*
X141224000Y-77018000D03*
X138684000Y-77018000D03*
X136144000Y-77018000D03*
X133604000Y-77018000D03*
X131064000Y-77018000D03*
X128524000Y-77018000D03*
X125984000Y-77018000D03*
D15*
X150876000Y-69286000D03*
D14*
X153416000Y-69286000D03*
X155956000Y-69286000D03*
X158496000Y-69286000D03*
X161036000Y-69286000D03*
X163576000Y-69286000D03*
X166116000Y-69286000D03*
X168656000Y-69286000D03*
X171196000Y-69286000D03*
X171196000Y-77018000D03*
X168656000Y-77018000D03*
X166116000Y-77018000D03*
X163576000Y-77018000D03*
X161036000Y-77018000D03*
X158496000Y-77018000D03*
X155956000Y-77018000D03*
X153416000Y-77018000D03*
X150876000Y-77018000D03*
X175768000Y-77018000D03*
X178308000Y-77018000D03*
X180848000Y-77018000D03*
X183388000Y-77018000D03*
X185928000Y-77018000D03*
X188468000Y-77018000D03*
X191008000Y-77018000D03*
X193548000Y-77018000D03*
X196088000Y-77018000D03*
X196088000Y-69286000D03*
X193548000Y-69286000D03*
X191008000Y-69286000D03*
X188468000Y-69286000D03*
X185928000Y-69286000D03*
X183388000Y-69286000D03*
X180848000Y-69286000D03*
X178308000Y-69286000D03*
D15*
X175768000Y-69286000D03*
D16*
X37592000Y-93980000D03*
D17*
X37592000Y-91440000D03*
X37592000Y-88900000D03*
D11*
X19812000Y-99314000D03*
X19812000Y-83566000D03*
X48260000Y-99314000D03*
X48260000Y-83566000D03*
M02*
