G04 #@! TF.GenerationSoftware,KiCad,Pcbnew,(5.1.4)-1*
G04 #@! TF.CreationDate,2020-02-10T21:29:39-05:00*
G04 #@! TF.ProjectId,xmas,786d6173-2e6b-4696-9361-645f70636258,rev?*
G04 #@! TF.SameCoordinates,Original*
G04 #@! TF.FileFunction,Copper,L1,Top*
G04 #@! TF.FilePolarity,Positive*
%FSLAX46Y46*%
G04 Gerber Fmt 4.6, Leading zero omitted, Abs format (unit mm)*
G04 Created by KiCad (PCBNEW (5.1.4)-1) date 2020-02-10 21:29:39*
%MOMM*%
%LPD*%
G04 APERTURE LIST*
%ADD10R,0.650000X1.525000*%
%ADD11C,1.524000*%
%ADD12C,1.524000*%
%ADD13C,1.800000*%
%ADD14C,0.100000*%
%ADD15C,1.425000*%
%ADD16R,1.500000X1.000000*%
%ADD17C,1.133000*%
%ADD18R,1.133000X1.133000*%
%ADD19R,2.000000X2.000000*%
%ADD20C,2.000000*%
%ADD21C,0.800000*%
%ADD22C,0.250000*%
%ADD23C,0.300000*%
G04 APERTURE END LIST*
D10*
X80391000Y-64688000D03*
X81661000Y-64688000D03*
X82931000Y-64688000D03*
X84201000Y-64688000D03*
X85471000Y-64688000D03*
X86741000Y-64688000D03*
X88011000Y-64688000D03*
X89281000Y-64688000D03*
X89281000Y-59264000D03*
X88011000Y-59264000D03*
X86741000Y-59264000D03*
X85471000Y-59264000D03*
X84201000Y-59264000D03*
X82931000Y-59264000D03*
X81661000Y-59264000D03*
X80391000Y-59264000D03*
D11*
X136680914Y-97235555D03*
D12*
X136807218Y-97706927D02*
X136554610Y-96764183D01*
D11*
X139370640Y-95682641D03*
D12*
X139715708Y-96027709D02*
X139025572Y-95337573D01*
D11*
X140923555Y-92992915D03*
D12*
X141394927Y-93119219D02*
X140452183Y-92866611D01*
D11*
X140923555Y-89887086D03*
D12*
X141394927Y-89760782D02*
X140452183Y-90013390D01*
D11*
X139370641Y-87197360D03*
D12*
X139715709Y-86852292D02*
X139025573Y-87542428D01*
D11*
X136680915Y-85644445D03*
D12*
X136807219Y-85173073D02*
X136554611Y-86115817D01*
D11*
X133575086Y-85644445D03*
D12*
X133448782Y-85173073D02*
X133701390Y-86115817D01*
D11*
X130885360Y-87197359D03*
D12*
X130540292Y-86852291D02*
X131230428Y-87542427D01*
D11*
X129332445Y-89887085D03*
D12*
X128861073Y-89760781D02*
X129803817Y-90013389D01*
D11*
X129332445Y-92992914D03*
D12*
X128861073Y-93119218D02*
X129803817Y-92866610D01*
D11*
X130885359Y-95682640D03*
D12*
X130540291Y-96027708D02*
X131230427Y-95337572D01*
D11*
X163604914Y-97235555D03*
D12*
X163731218Y-97706927D02*
X163478610Y-96764183D01*
D11*
X166294640Y-95682641D03*
D12*
X166639708Y-96027709D02*
X165949572Y-95337573D01*
D11*
X167847555Y-92992915D03*
D12*
X168318927Y-93119219D02*
X167376183Y-92866611D01*
D11*
X167847555Y-89887086D03*
D12*
X168318927Y-89760782D02*
X167376183Y-90013390D01*
D11*
X166294641Y-87197360D03*
D12*
X166639709Y-86852292D02*
X165949573Y-87542428D01*
D11*
X163604915Y-85644445D03*
D12*
X163731219Y-85173073D02*
X163478611Y-86115817D01*
D11*
X160499086Y-85644445D03*
D12*
X160372782Y-85173073D02*
X160625390Y-86115817D01*
D11*
X157809360Y-87197359D03*
D12*
X157464292Y-86852291D02*
X158154428Y-87542427D01*
D11*
X156256445Y-89887085D03*
D12*
X155785073Y-89760781D02*
X156727817Y-90013389D01*
D11*
X156256445Y-92992914D03*
D12*
X155785073Y-93119218D02*
X156727817Y-92866610D01*
D11*
X157809359Y-95682640D03*
D12*
X157464291Y-96027708D02*
X158154427Y-95337572D01*
D13*
X40640000Y-56642000D03*
X38100000Y-56642000D03*
X35560000Y-56642000D03*
X33020000Y-56642000D03*
X30480000Y-56642000D03*
X27940000Y-56642000D03*
X25400000Y-56642000D03*
X22860000Y-56642000D03*
X22860000Y-79502000D03*
X25400000Y-79502000D03*
X27940000Y-79502000D03*
X30480000Y-79502000D03*
X33020000Y-79502000D03*
X35560000Y-79502000D03*
X38100000Y-79502000D03*
X40640000Y-79502000D03*
D11*
X186464914Y-97235555D03*
D12*
X186591218Y-97706927D02*
X186338610Y-96764183D01*
D11*
X189154640Y-95682641D03*
D12*
X189499708Y-96027709D02*
X188809572Y-95337573D01*
D11*
X190707555Y-92992915D03*
D12*
X191178927Y-93119219D02*
X190236183Y-92866611D01*
D11*
X190707555Y-89887086D03*
D12*
X191178927Y-89760782D02*
X190236183Y-90013390D01*
D11*
X189154641Y-87197360D03*
D12*
X189499709Y-86852292D02*
X188809573Y-87542428D01*
D11*
X186464915Y-85644445D03*
D12*
X186591219Y-85173073D02*
X186338611Y-86115817D01*
D11*
X183359086Y-85644445D03*
D12*
X183232782Y-85173073D02*
X183485390Y-86115817D01*
D11*
X180669360Y-87197359D03*
D12*
X180324292Y-86852291D02*
X181014428Y-87542427D01*
D11*
X179116445Y-89887085D03*
D12*
X178645073Y-89760781D02*
X179587817Y-90013389D01*
D11*
X179116445Y-92992914D03*
D12*
X178645073Y-93119218D02*
X179587817Y-92866610D01*
D11*
X180669359Y-95682640D03*
D12*
X180324291Y-96027708D02*
X181014427Y-95337572D01*
D11*
X113820914Y-97235555D03*
D12*
X113947218Y-97706927D02*
X113694610Y-96764183D01*
D11*
X116510640Y-95682641D03*
D12*
X116855708Y-96027709D02*
X116165572Y-95337573D01*
D11*
X118063555Y-92992915D03*
D12*
X118534927Y-93119219D02*
X117592183Y-92866611D01*
D11*
X118063555Y-89887086D03*
D12*
X118534927Y-89760782D02*
X117592183Y-90013390D01*
D11*
X116510641Y-87197360D03*
D12*
X116855709Y-86852292D02*
X116165573Y-87542428D01*
D11*
X113820915Y-85644445D03*
D12*
X113947219Y-85173073D02*
X113694611Y-86115817D01*
D11*
X110715086Y-85644445D03*
D12*
X110588782Y-85173073D02*
X110841390Y-86115817D01*
D11*
X108025360Y-87197359D03*
D12*
X107680292Y-86852291D02*
X108370428Y-87542427D01*
D11*
X106472445Y-89887085D03*
D12*
X106001073Y-89760781D02*
X106943817Y-90013389D01*
D11*
X106472445Y-92992914D03*
D12*
X106001073Y-93119218D02*
X106943817Y-92866610D01*
D11*
X108025359Y-95682640D03*
D12*
X107680291Y-96027708D02*
X108370427Y-95337572D01*
D11*
X86896914Y-97235555D03*
D12*
X87023218Y-97706927D02*
X86770610Y-96764183D01*
D11*
X89586640Y-95682641D03*
D12*
X89931708Y-96027709D02*
X89241572Y-95337573D01*
D11*
X91139555Y-92992915D03*
D12*
X91610927Y-93119219D02*
X90668183Y-92866611D01*
D11*
X91139555Y-89887086D03*
D12*
X91610927Y-89760782D02*
X90668183Y-90013390D01*
D11*
X89586641Y-87197360D03*
D12*
X89931709Y-86852292D02*
X89241573Y-87542428D01*
D11*
X86896915Y-85644445D03*
D12*
X87023219Y-85173073D02*
X86770611Y-86115817D01*
D11*
X83791086Y-85644445D03*
D12*
X83664782Y-85173073D02*
X83917390Y-86115817D01*
D11*
X81101360Y-87197359D03*
D12*
X80756292Y-86852291D02*
X81446428Y-87542427D01*
D11*
X79548445Y-89887085D03*
D12*
X79077073Y-89760781D02*
X80019817Y-90013389D01*
D11*
X79548445Y-92992914D03*
D12*
X79077073Y-93119218D02*
X80019817Y-92866610D01*
D11*
X81101359Y-95682640D03*
D12*
X80756291Y-96027708D02*
X81446427Y-95337572D01*
D11*
X64036914Y-97235555D03*
D12*
X64163218Y-97706927D02*
X63910610Y-96764183D01*
D11*
X66726640Y-95682641D03*
D12*
X67071708Y-96027709D02*
X66381572Y-95337573D01*
D11*
X68279555Y-92992915D03*
D12*
X68750927Y-93119219D02*
X67808183Y-92866611D01*
D11*
X68279555Y-89887086D03*
D12*
X68750927Y-89760782D02*
X67808183Y-90013390D01*
D11*
X66726641Y-87197360D03*
D12*
X67071709Y-86852292D02*
X66381573Y-87542428D01*
D11*
X64036915Y-85644445D03*
D12*
X64163219Y-85173073D02*
X63910611Y-86115817D01*
D11*
X60931086Y-85644445D03*
D12*
X60804782Y-85173073D02*
X61057390Y-86115817D01*
D11*
X58241360Y-87197359D03*
D12*
X57896292Y-86852291D02*
X58586428Y-87542427D01*
D11*
X56688445Y-89887085D03*
D12*
X56217073Y-89760781D02*
X57159817Y-90013389D01*
D11*
X56688445Y-92992914D03*
D12*
X56217073Y-93119218D02*
X57159817Y-92866610D01*
D11*
X58241359Y-95682640D03*
D12*
X57896291Y-96027708D02*
X58586427Y-95337572D01*
D14*
G36*
X69229504Y-63260204D02*
G01*
X69253773Y-63263804D01*
X69277571Y-63269765D01*
X69300671Y-63278030D01*
X69322849Y-63288520D01*
X69343893Y-63301133D01*
X69363598Y-63315747D01*
X69381777Y-63332223D01*
X69398253Y-63350402D01*
X69412867Y-63370107D01*
X69425480Y-63391151D01*
X69435970Y-63413329D01*
X69444235Y-63436429D01*
X69450196Y-63460227D01*
X69453796Y-63484496D01*
X69455000Y-63509000D01*
X69455000Y-64434000D01*
X69453796Y-64458504D01*
X69450196Y-64482773D01*
X69444235Y-64506571D01*
X69435970Y-64529671D01*
X69425480Y-64551849D01*
X69412867Y-64572893D01*
X69398253Y-64592598D01*
X69381777Y-64610777D01*
X69363598Y-64627253D01*
X69343893Y-64641867D01*
X69322849Y-64654480D01*
X69300671Y-64664970D01*
X69277571Y-64673235D01*
X69253773Y-64679196D01*
X69229504Y-64682796D01*
X69205000Y-64684000D01*
X67955000Y-64684000D01*
X67930496Y-64682796D01*
X67906227Y-64679196D01*
X67882429Y-64673235D01*
X67859329Y-64664970D01*
X67837151Y-64654480D01*
X67816107Y-64641867D01*
X67796402Y-64627253D01*
X67778223Y-64610777D01*
X67761747Y-64592598D01*
X67747133Y-64572893D01*
X67734520Y-64551849D01*
X67724030Y-64529671D01*
X67715765Y-64506571D01*
X67709804Y-64482773D01*
X67706204Y-64458504D01*
X67705000Y-64434000D01*
X67705000Y-63509000D01*
X67706204Y-63484496D01*
X67709804Y-63460227D01*
X67715765Y-63436429D01*
X67724030Y-63413329D01*
X67734520Y-63391151D01*
X67747133Y-63370107D01*
X67761747Y-63350402D01*
X67778223Y-63332223D01*
X67796402Y-63315747D01*
X67816107Y-63301133D01*
X67837151Y-63288520D01*
X67859329Y-63278030D01*
X67882429Y-63269765D01*
X67906227Y-63263804D01*
X67930496Y-63260204D01*
X67955000Y-63259000D01*
X69205000Y-63259000D01*
X69229504Y-63260204D01*
X69229504Y-63260204D01*
G37*
D15*
X68580000Y-63971500D03*
D14*
G36*
X69229504Y-60285204D02*
G01*
X69253773Y-60288804D01*
X69277571Y-60294765D01*
X69300671Y-60303030D01*
X69322849Y-60313520D01*
X69343893Y-60326133D01*
X69363598Y-60340747D01*
X69381777Y-60357223D01*
X69398253Y-60375402D01*
X69412867Y-60395107D01*
X69425480Y-60416151D01*
X69435970Y-60438329D01*
X69444235Y-60461429D01*
X69450196Y-60485227D01*
X69453796Y-60509496D01*
X69455000Y-60534000D01*
X69455000Y-61459000D01*
X69453796Y-61483504D01*
X69450196Y-61507773D01*
X69444235Y-61531571D01*
X69435970Y-61554671D01*
X69425480Y-61576849D01*
X69412867Y-61597893D01*
X69398253Y-61617598D01*
X69381777Y-61635777D01*
X69363598Y-61652253D01*
X69343893Y-61666867D01*
X69322849Y-61679480D01*
X69300671Y-61689970D01*
X69277571Y-61698235D01*
X69253773Y-61704196D01*
X69229504Y-61707796D01*
X69205000Y-61709000D01*
X67955000Y-61709000D01*
X67930496Y-61707796D01*
X67906227Y-61704196D01*
X67882429Y-61698235D01*
X67859329Y-61689970D01*
X67837151Y-61679480D01*
X67816107Y-61666867D01*
X67796402Y-61652253D01*
X67778223Y-61635777D01*
X67761747Y-61617598D01*
X67747133Y-61597893D01*
X67734520Y-61576849D01*
X67724030Y-61554671D01*
X67715765Y-61531571D01*
X67709804Y-61507773D01*
X67706204Y-61483504D01*
X67705000Y-61459000D01*
X67705000Y-60534000D01*
X67706204Y-60509496D01*
X67709804Y-60485227D01*
X67715765Y-60461429D01*
X67724030Y-60438329D01*
X67734520Y-60416151D01*
X67747133Y-60395107D01*
X67761747Y-60375402D01*
X67778223Y-60357223D01*
X67796402Y-60340747D01*
X67816107Y-60326133D01*
X67837151Y-60313520D01*
X67859329Y-60303030D01*
X67882429Y-60294765D01*
X67906227Y-60288804D01*
X67930496Y-60285204D01*
X67955000Y-60284000D01*
X69205000Y-60284000D01*
X69229504Y-60285204D01*
X69229504Y-60285204D01*
G37*
D15*
X68580000Y-60996500D03*
D14*
G36*
X94121504Y-60285204D02*
G01*
X94145773Y-60288804D01*
X94169571Y-60294765D01*
X94192671Y-60303030D01*
X94214849Y-60313520D01*
X94235893Y-60326133D01*
X94255598Y-60340747D01*
X94273777Y-60357223D01*
X94290253Y-60375402D01*
X94304867Y-60395107D01*
X94317480Y-60416151D01*
X94327970Y-60438329D01*
X94336235Y-60461429D01*
X94342196Y-60485227D01*
X94345796Y-60509496D01*
X94347000Y-60534000D01*
X94347000Y-61459000D01*
X94345796Y-61483504D01*
X94342196Y-61507773D01*
X94336235Y-61531571D01*
X94327970Y-61554671D01*
X94317480Y-61576849D01*
X94304867Y-61597893D01*
X94290253Y-61617598D01*
X94273777Y-61635777D01*
X94255598Y-61652253D01*
X94235893Y-61666867D01*
X94214849Y-61679480D01*
X94192671Y-61689970D01*
X94169571Y-61698235D01*
X94145773Y-61704196D01*
X94121504Y-61707796D01*
X94097000Y-61709000D01*
X92847000Y-61709000D01*
X92822496Y-61707796D01*
X92798227Y-61704196D01*
X92774429Y-61698235D01*
X92751329Y-61689970D01*
X92729151Y-61679480D01*
X92708107Y-61666867D01*
X92688402Y-61652253D01*
X92670223Y-61635777D01*
X92653747Y-61617598D01*
X92639133Y-61597893D01*
X92626520Y-61576849D01*
X92616030Y-61554671D01*
X92607765Y-61531571D01*
X92601804Y-61507773D01*
X92598204Y-61483504D01*
X92597000Y-61459000D01*
X92597000Y-60534000D01*
X92598204Y-60509496D01*
X92601804Y-60485227D01*
X92607765Y-60461429D01*
X92616030Y-60438329D01*
X92626520Y-60416151D01*
X92639133Y-60395107D01*
X92653747Y-60375402D01*
X92670223Y-60357223D01*
X92688402Y-60340747D01*
X92708107Y-60326133D01*
X92729151Y-60313520D01*
X92751329Y-60303030D01*
X92774429Y-60294765D01*
X92798227Y-60288804D01*
X92822496Y-60285204D01*
X92847000Y-60284000D01*
X94097000Y-60284000D01*
X94121504Y-60285204D01*
X94121504Y-60285204D01*
G37*
D15*
X93472000Y-60996500D03*
D14*
G36*
X94121504Y-63260204D02*
G01*
X94145773Y-63263804D01*
X94169571Y-63269765D01*
X94192671Y-63278030D01*
X94214849Y-63288520D01*
X94235893Y-63301133D01*
X94255598Y-63315747D01*
X94273777Y-63332223D01*
X94290253Y-63350402D01*
X94304867Y-63370107D01*
X94317480Y-63391151D01*
X94327970Y-63413329D01*
X94336235Y-63436429D01*
X94342196Y-63460227D01*
X94345796Y-63484496D01*
X94347000Y-63509000D01*
X94347000Y-64434000D01*
X94345796Y-64458504D01*
X94342196Y-64482773D01*
X94336235Y-64506571D01*
X94327970Y-64529671D01*
X94317480Y-64551849D01*
X94304867Y-64572893D01*
X94290253Y-64592598D01*
X94273777Y-64610777D01*
X94255598Y-64627253D01*
X94235893Y-64641867D01*
X94214849Y-64654480D01*
X94192671Y-64664970D01*
X94169571Y-64673235D01*
X94145773Y-64679196D01*
X94121504Y-64682796D01*
X94097000Y-64684000D01*
X92847000Y-64684000D01*
X92822496Y-64682796D01*
X92798227Y-64679196D01*
X92774429Y-64673235D01*
X92751329Y-64664970D01*
X92729151Y-64654480D01*
X92708107Y-64641867D01*
X92688402Y-64627253D01*
X92670223Y-64610777D01*
X92653747Y-64592598D01*
X92639133Y-64572893D01*
X92626520Y-64551849D01*
X92616030Y-64529671D01*
X92607765Y-64506571D01*
X92601804Y-64482773D01*
X92598204Y-64458504D01*
X92597000Y-64434000D01*
X92597000Y-63509000D01*
X92598204Y-63484496D01*
X92601804Y-63460227D01*
X92607765Y-63436429D01*
X92616030Y-63413329D01*
X92626520Y-63391151D01*
X92639133Y-63370107D01*
X92653747Y-63350402D01*
X92670223Y-63332223D01*
X92688402Y-63315747D01*
X92708107Y-63301133D01*
X92729151Y-63288520D01*
X92751329Y-63278030D01*
X92774429Y-63269765D01*
X92798227Y-63263804D01*
X92822496Y-63260204D01*
X92847000Y-63259000D01*
X94097000Y-63259000D01*
X94121504Y-63260204D01*
X94121504Y-63260204D01*
G37*
D15*
X93472000Y-63971500D03*
D14*
G36*
X119013504Y-63260204D02*
G01*
X119037773Y-63263804D01*
X119061571Y-63269765D01*
X119084671Y-63278030D01*
X119106849Y-63288520D01*
X119127893Y-63301133D01*
X119147598Y-63315747D01*
X119165777Y-63332223D01*
X119182253Y-63350402D01*
X119196867Y-63370107D01*
X119209480Y-63391151D01*
X119219970Y-63413329D01*
X119228235Y-63436429D01*
X119234196Y-63460227D01*
X119237796Y-63484496D01*
X119239000Y-63509000D01*
X119239000Y-64434000D01*
X119237796Y-64458504D01*
X119234196Y-64482773D01*
X119228235Y-64506571D01*
X119219970Y-64529671D01*
X119209480Y-64551849D01*
X119196867Y-64572893D01*
X119182253Y-64592598D01*
X119165777Y-64610777D01*
X119147598Y-64627253D01*
X119127893Y-64641867D01*
X119106849Y-64654480D01*
X119084671Y-64664970D01*
X119061571Y-64673235D01*
X119037773Y-64679196D01*
X119013504Y-64682796D01*
X118989000Y-64684000D01*
X117739000Y-64684000D01*
X117714496Y-64682796D01*
X117690227Y-64679196D01*
X117666429Y-64673235D01*
X117643329Y-64664970D01*
X117621151Y-64654480D01*
X117600107Y-64641867D01*
X117580402Y-64627253D01*
X117562223Y-64610777D01*
X117545747Y-64592598D01*
X117531133Y-64572893D01*
X117518520Y-64551849D01*
X117508030Y-64529671D01*
X117499765Y-64506571D01*
X117493804Y-64482773D01*
X117490204Y-64458504D01*
X117489000Y-64434000D01*
X117489000Y-63509000D01*
X117490204Y-63484496D01*
X117493804Y-63460227D01*
X117499765Y-63436429D01*
X117508030Y-63413329D01*
X117518520Y-63391151D01*
X117531133Y-63370107D01*
X117545747Y-63350402D01*
X117562223Y-63332223D01*
X117580402Y-63315747D01*
X117600107Y-63301133D01*
X117621151Y-63288520D01*
X117643329Y-63278030D01*
X117666429Y-63269765D01*
X117690227Y-63263804D01*
X117714496Y-63260204D01*
X117739000Y-63259000D01*
X118989000Y-63259000D01*
X119013504Y-63260204D01*
X119013504Y-63260204D01*
G37*
D15*
X118364000Y-63971500D03*
D14*
G36*
X119013504Y-60285204D02*
G01*
X119037773Y-60288804D01*
X119061571Y-60294765D01*
X119084671Y-60303030D01*
X119106849Y-60313520D01*
X119127893Y-60326133D01*
X119147598Y-60340747D01*
X119165777Y-60357223D01*
X119182253Y-60375402D01*
X119196867Y-60395107D01*
X119209480Y-60416151D01*
X119219970Y-60438329D01*
X119228235Y-60461429D01*
X119234196Y-60485227D01*
X119237796Y-60509496D01*
X119239000Y-60534000D01*
X119239000Y-61459000D01*
X119237796Y-61483504D01*
X119234196Y-61507773D01*
X119228235Y-61531571D01*
X119219970Y-61554671D01*
X119209480Y-61576849D01*
X119196867Y-61597893D01*
X119182253Y-61617598D01*
X119165777Y-61635777D01*
X119147598Y-61652253D01*
X119127893Y-61666867D01*
X119106849Y-61679480D01*
X119084671Y-61689970D01*
X119061571Y-61698235D01*
X119037773Y-61704196D01*
X119013504Y-61707796D01*
X118989000Y-61709000D01*
X117739000Y-61709000D01*
X117714496Y-61707796D01*
X117690227Y-61704196D01*
X117666429Y-61698235D01*
X117643329Y-61689970D01*
X117621151Y-61679480D01*
X117600107Y-61666867D01*
X117580402Y-61652253D01*
X117562223Y-61635777D01*
X117545747Y-61617598D01*
X117531133Y-61597893D01*
X117518520Y-61576849D01*
X117508030Y-61554671D01*
X117499765Y-61531571D01*
X117493804Y-61507773D01*
X117490204Y-61483504D01*
X117489000Y-61459000D01*
X117489000Y-60534000D01*
X117490204Y-60509496D01*
X117493804Y-60485227D01*
X117499765Y-60461429D01*
X117508030Y-60438329D01*
X117518520Y-60416151D01*
X117531133Y-60395107D01*
X117545747Y-60375402D01*
X117562223Y-60357223D01*
X117580402Y-60340747D01*
X117600107Y-60326133D01*
X117621151Y-60313520D01*
X117643329Y-60303030D01*
X117666429Y-60294765D01*
X117690227Y-60288804D01*
X117714496Y-60285204D01*
X117739000Y-60284000D01*
X118989000Y-60284000D01*
X119013504Y-60285204D01*
X119013504Y-60285204D01*
G37*
D15*
X118364000Y-60996500D03*
D14*
G36*
X143905504Y-60285204D02*
G01*
X143929773Y-60288804D01*
X143953571Y-60294765D01*
X143976671Y-60303030D01*
X143998849Y-60313520D01*
X144019893Y-60326133D01*
X144039598Y-60340747D01*
X144057777Y-60357223D01*
X144074253Y-60375402D01*
X144088867Y-60395107D01*
X144101480Y-60416151D01*
X144111970Y-60438329D01*
X144120235Y-60461429D01*
X144126196Y-60485227D01*
X144129796Y-60509496D01*
X144131000Y-60534000D01*
X144131000Y-61459000D01*
X144129796Y-61483504D01*
X144126196Y-61507773D01*
X144120235Y-61531571D01*
X144111970Y-61554671D01*
X144101480Y-61576849D01*
X144088867Y-61597893D01*
X144074253Y-61617598D01*
X144057777Y-61635777D01*
X144039598Y-61652253D01*
X144019893Y-61666867D01*
X143998849Y-61679480D01*
X143976671Y-61689970D01*
X143953571Y-61698235D01*
X143929773Y-61704196D01*
X143905504Y-61707796D01*
X143881000Y-61709000D01*
X142631000Y-61709000D01*
X142606496Y-61707796D01*
X142582227Y-61704196D01*
X142558429Y-61698235D01*
X142535329Y-61689970D01*
X142513151Y-61679480D01*
X142492107Y-61666867D01*
X142472402Y-61652253D01*
X142454223Y-61635777D01*
X142437747Y-61617598D01*
X142423133Y-61597893D01*
X142410520Y-61576849D01*
X142400030Y-61554671D01*
X142391765Y-61531571D01*
X142385804Y-61507773D01*
X142382204Y-61483504D01*
X142381000Y-61459000D01*
X142381000Y-60534000D01*
X142382204Y-60509496D01*
X142385804Y-60485227D01*
X142391765Y-60461429D01*
X142400030Y-60438329D01*
X142410520Y-60416151D01*
X142423133Y-60395107D01*
X142437747Y-60375402D01*
X142454223Y-60357223D01*
X142472402Y-60340747D01*
X142492107Y-60326133D01*
X142513151Y-60313520D01*
X142535329Y-60303030D01*
X142558429Y-60294765D01*
X142582227Y-60288804D01*
X142606496Y-60285204D01*
X142631000Y-60284000D01*
X143881000Y-60284000D01*
X143905504Y-60285204D01*
X143905504Y-60285204D01*
G37*
D15*
X143256000Y-60996500D03*
D14*
G36*
X143905504Y-63260204D02*
G01*
X143929773Y-63263804D01*
X143953571Y-63269765D01*
X143976671Y-63278030D01*
X143998849Y-63288520D01*
X144019893Y-63301133D01*
X144039598Y-63315747D01*
X144057777Y-63332223D01*
X144074253Y-63350402D01*
X144088867Y-63370107D01*
X144101480Y-63391151D01*
X144111970Y-63413329D01*
X144120235Y-63436429D01*
X144126196Y-63460227D01*
X144129796Y-63484496D01*
X144131000Y-63509000D01*
X144131000Y-64434000D01*
X144129796Y-64458504D01*
X144126196Y-64482773D01*
X144120235Y-64506571D01*
X144111970Y-64529671D01*
X144101480Y-64551849D01*
X144088867Y-64572893D01*
X144074253Y-64592598D01*
X144057777Y-64610777D01*
X144039598Y-64627253D01*
X144019893Y-64641867D01*
X143998849Y-64654480D01*
X143976671Y-64664970D01*
X143953571Y-64673235D01*
X143929773Y-64679196D01*
X143905504Y-64682796D01*
X143881000Y-64684000D01*
X142631000Y-64684000D01*
X142606496Y-64682796D01*
X142582227Y-64679196D01*
X142558429Y-64673235D01*
X142535329Y-64664970D01*
X142513151Y-64654480D01*
X142492107Y-64641867D01*
X142472402Y-64627253D01*
X142454223Y-64610777D01*
X142437747Y-64592598D01*
X142423133Y-64572893D01*
X142410520Y-64551849D01*
X142400030Y-64529671D01*
X142391765Y-64506571D01*
X142385804Y-64482773D01*
X142382204Y-64458504D01*
X142381000Y-64434000D01*
X142381000Y-63509000D01*
X142382204Y-63484496D01*
X142385804Y-63460227D01*
X142391765Y-63436429D01*
X142400030Y-63413329D01*
X142410520Y-63391151D01*
X142423133Y-63370107D01*
X142437747Y-63350402D01*
X142454223Y-63332223D01*
X142472402Y-63315747D01*
X142492107Y-63301133D01*
X142513151Y-63288520D01*
X142535329Y-63278030D01*
X142558429Y-63269765D01*
X142582227Y-63263804D01*
X142606496Y-63260204D01*
X142631000Y-63259000D01*
X143881000Y-63259000D01*
X143905504Y-63260204D01*
X143905504Y-63260204D01*
G37*
D15*
X143256000Y-63971500D03*
D14*
G36*
X168797504Y-63260204D02*
G01*
X168821773Y-63263804D01*
X168845571Y-63269765D01*
X168868671Y-63278030D01*
X168890849Y-63288520D01*
X168911893Y-63301133D01*
X168931598Y-63315747D01*
X168949777Y-63332223D01*
X168966253Y-63350402D01*
X168980867Y-63370107D01*
X168993480Y-63391151D01*
X169003970Y-63413329D01*
X169012235Y-63436429D01*
X169018196Y-63460227D01*
X169021796Y-63484496D01*
X169023000Y-63509000D01*
X169023000Y-64434000D01*
X169021796Y-64458504D01*
X169018196Y-64482773D01*
X169012235Y-64506571D01*
X169003970Y-64529671D01*
X168993480Y-64551849D01*
X168980867Y-64572893D01*
X168966253Y-64592598D01*
X168949777Y-64610777D01*
X168931598Y-64627253D01*
X168911893Y-64641867D01*
X168890849Y-64654480D01*
X168868671Y-64664970D01*
X168845571Y-64673235D01*
X168821773Y-64679196D01*
X168797504Y-64682796D01*
X168773000Y-64684000D01*
X167523000Y-64684000D01*
X167498496Y-64682796D01*
X167474227Y-64679196D01*
X167450429Y-64673235D01*
X167427329Y-64664970D01*
X167405151Y-64654480D01*
X167384107Y-64641867D01*
X167364402Y-64627253D01*
X167346223Y-64610777D01*
X167329747Y-64592598D01*
X167315133Y-64572893D01*
X167302520Y-64551849D01*
X167292030Y-64529671D01*
X167283765Y-64506571D01*
X167277804Y-64482773D01*
X167274204Y-64458504D01*
X167273000Y-64434000D01*
X167273000Y-63509000D01*
X167274204Y-63484496D01*
X167277804Y-63460227D01*
X167283765Y-63436429D01*
X167292030Y-63413329D01*
X167302520Y-63391151D01*
X167315133Y-63370107D01*
X167329747Y-63350402D01*
X167346223Y-63332223D01*
X167364402Y-63315747D01*
X167384107Y-63301133D01*
X167405151Y-63288520D01*
X167427329Y-63278030D01*
X167450429Y-63269765D01*
X167474227Y-63263804D01*
X167498496Y-63260204D01*
X167523000Y-63259000D01*
X168773000Y-63259000D01*
X168797504Y-63260204D01*
X168797504Y-63260204D01*
G37*
D15*
X168148000Y-63971500D03*
D14*
G36*
X168797504Y-60285204D02*
G01*
X168821773Y-60288804D01*
X168845571Y-60294765D01*
X168868671Y-60303030D01*
X168890849Y-60313520D01*
X168911893Y-60326133D01*
X168931598Y-60340747D01*
X168949777Y-60357223D01*
X168966253Y-60375402D01*
X168980867Y-60395107D01*
X168993480Y-60416151D01*
X169003970Y-60438329D01*
X169012235Y-60461429D01*
X169018196Y-60485227D01*
X169021796Y-60509496D01*
X169023000Y-60534000D01*
X169023000Y-61459000D01*
X169021796Y-61483504D01*
X169018196Y-61507773D01*
X169012235Y-61531571D01*
X169003970Y-61554671D01*
X168993480Y-61576849D01*
X168980867Y-61597893D01*
X168966253Y-61617598D01*
X168949777Y-61635777D01*
X168931598Y-61652253D01*
X168911893Y-61666867D01*
X168890849Y-61679480D01*
X168868671Y-61689970D01*
X168845571Y-61698235D01*
X168821773Y-61704196D01*
X168797504Y-61707796D01*
X168773000Y-61709000D01*
X167523000Y-61709000D01*
X167498496Y-61707796D01*
X167474227Y-61704196D01*
X167450429Y-61698235D01*
X167427329Y-61689970D01*
X167405151Y-61679480D01*
X167384107Y-61666867D01*
X167364402Y-61652253D01*
X167346223Y-61635777D01*
X167329747Y-61617598D01*
X167315133Y-61597893D01*
X167302520Y-61576849D01*
X167292030Y-61554671D01*
X167283765Y-61531571D01*
X167277804Y-61507773D01*
X167274204Y-61483504D01*
X167273000Y-61459000D01*
X167273000Y-60534000D01*
X167274204Y-60509496D01*
X167277804Y-60485227D01*
X167283765Y-60461429D01*
X167292030Y-60438329D01*
X167302520Y-60416151D01*
X167315133Y-60395107D01*
X167329747Y-60375402D01*
X167346223Y-60357223D01*
X167364402Y-60340747D01*
X167384107Y-60326133D01*
X167405151Y-60313520D01*
X167427329Y-60303030D01*
X167450429Y-60294765D01*
X167474227Y-60288804D01*
X167498496Y-60285204D01*
X167523000Y-60284000D01*
X168773000Y-60284000D01*
X168797504Y-60285204D01*
X168797504Y-60285204D01*
G37*
D15*
X168148000Y-60996500D03*
D14*
G36*
X193689504Y-60285204D02*
G01*
X193713773Y-60288804D01*
X193737571Y-60294765D01*
X193760671Y-60303030D01*
X193782849Y-60313520D01*
X193803893Y-60326133D01*
X193823598Y-60340747D01*
X193841777Y-60357223D01*
X193858253Y-60375402D01*
X193872867Y-60395107D01*
X193885480Y-60416151D01*
X193895970Y-60438329D01*
X193904235Y-60461429D01*
X193910196Y-60485227D01*
X193913796Y-60509496D01*
X193915000Y-60534000D01*
X193915000Y-61459000D01*
X193913796Y-61483504D01*
X193910196Y-61507773D01*
X193904235Y-61531571D01*
X193895970Y-61554671D01*
X193885480Y-61576849D01*
X193872867Y-61597893D01*
X193858253Y-61617598D01*
X193841777Y-61635777D01*
X193823598Y-61652253D01*
X193803893Y-61666867D01*
X193782849Y-61679480D01*
X193760671Y-61689970D01*
X193737571Y-61698235D01*
X193713773Y-61704196D01*
X193689504Y-61707796D01*
X193665000Y-61709000D01*
X192415000Y-61709000D01*
X192390496Y-61707796D01*
X192366227Y-61704196D01*
X192342429Y-61698235D01*
X192319329Y-61689970D01*
X192297151Y-61679480D01*
X192276107Y-61666867D01*
X192256402Y-61652253D01*
X192238223Y-61635777D01*
X192221747Y-61617598D01*
X192207133Y-61597893D01*
X192194520Y-61576849D01*
X192184030Y-61554671D01*
X192175765Y-61531571D01*
X192169804Y-61507773D01*
X192166204Y-61483504D01*
X192165000Y-61459000D01*
X192165000Y-60534000D01*
X192166204Y-60509496D01*
X192169804Y-60485227D01*
X192175765Y-60461429D01*
X192184030Y-60438329D01*
X192194520Y-60416151D01*
X192207133Y-60395107D01*
X192221747Y-60375402D01*
X192238223Y-60357223D01*
X192256402Y-60340747D01*
X192276107Y-60326133D01*
X192297151Y-60313520D01*
X192319329Y-60303030D01*
X192342429Y-60294765D01*
X192366227Y-60288804D01*
X192390496Y-60285204D01*
X192415000Y-60284000D01*
X193665000Y-60284000D01*
X193689504Y-60285204D01*
X193689504Y-60285204D01*
G37*
D15*
X193040000Y-60996500D03*
D14*
G36*
X193689504Y-63260204D02*
G01*
X193713773Y-63263804D01*
X193737571Y-63269765D01*
X193760671Y-63278030D01*
X193782849Y-63288520D01*
X193803893Y-63301133D01*
X193823598Y-63315747D01*
X193841777Y-63332223D01*
X193858253Y-63350402D01*
X193872867Y-63370107D01*
X193885480Y-63391151D01*
X193895970Y-63413329D01*
X193904235Y-63436429D01*
X193910196Y-63460227D01*
X193913796Y-63484496D01*
X193915000Y-63509000D01*
X193915000Y-64434000D01*
X193913796Y-64458504D01*
X193910196Y-64482773D01*
X193904235Y-64506571D01*
X193895970Y-64529671D01*
X193885480Y-64551849D01*
X193872867Y-64572893D01*
X193858253Y-64592598D01*
X193841777Y-64610777D01*
X193823598Y-64627253D01*
X193803893Y-64641867D01*
X193782849Y-64654480D01*
X193760671Y-64664970D01*
X193737571Y-64673235D01*
X193713773Y-64679196D01*
X193689504Y-64682796D01*
X193665000Y-64684000D01*
X192415000Y-64684000D01*
X192390496Y-64682796D01*
X192366227Y-64679196D01*
X192342429Y-64673235D01*
X192319329Y-64664970D01*
X192297151Y-64654480D01*
X192276107Y-64641867D01*
X192256402Y-64627253D01*
X192238223Y-64610777D01*
X192221747Y-64592598D01*
X192207133Y-64572893D01*
X192194520Y-64551849D01*
X192184030Y-64529671D01*
X192175765Y-64506571D01*
X192169804Y-64482773D01*
X192166204Y-64458504D01*
X192165000Y-64434000D01*
X192165000Y-63509000D01*
X192166204Y-63484496D01*
X192169804Y-63460227D01*
X192175765Y-63436429D01*
X192184030Y-63413329D01*
X192194520Y-63391151D01*
X192207133Y-63370107D01*
X192221747Y-63350402D01*
X192238223Y-63332223D01*
X192256402Y-63315747D01*
X192276107Y-63301133D01*
X192297151Y-63288520D01*
X192319329Y-63278030D01*
X192342429Y-63269765D01*
X192366227Y-63263804D01*
X192390496Y-63260204D01*
X192415000Y-63259000D01*
X193665000Y-63259000D01*
X193689504Y-63260204D01*
X193689504Y-63260204D01*
G37*
D15*
X193040000Y-63971500D03*
D16*
X60034000Y-89840000D03*
X60034000Y-93040000D03*
X64934000Y-89840000D03*
X64934000Y-93040000D03*
X87794000Y-93040000D03*
X87794000Y-89840000D03*
X82894000Y-93040000D03*
X82894000Y-89840000D03*
X114718000Y-93040000D03*
X114718000Y-89840000D03*
X109818000Y-93040000D03*
X109818000Y-89840000D03*
X132678000Y-89840000D03*
X132678000Y-93040000D03*
X137578000Y-89840000D03*
X137578000Y-93040000D03*
X164502000Y-93040000D03*
X164502000Y-89840000D03*
X159602000Y-93040000D03*
X159602000Y-89840000D03*
X182462000Y-89840000D03*
X182462000Y-93040000D03*
X187362000Y-89840000D03*
X187362000Y-93040000D03*
D17*
X51308000Y-77018000D03*
X53848000Y-77018000D03*
X56388000Y-77018000D03*
X58928000Y-77018000D03*
X61468000Y-77018000D03*
X64008000Y-77018000D03*
X66548000Y-77018000D03*
X69088000Y-77018000D03*
X71628000Y-77018000D03*
X71628000Y-69286000D03*
X69088000Y-69286000D03*
X66548000Y-69286000D03*
X64008000Y-69286000D03*
X61468000Y-69286000D03*
X58928000Y-69286000D03*
X56388000Y-69286000D03*
X53848000Y-69286000D03*
D18*
X51308000Y-69286000D03*
D10*
X55499000Y-59264000D03*
X56769000Y-59264000D03*
X58039000Y-59264000D03*
X59309000Y-59264000D03*
X60579000Y-59264000D03*
X61849000Y-59264000D03*
X63119000Y-59264000D03*
X64389000Y-59264000D03*
X64389000Y-64688000D03*
X63119000Y-64688000D03*
X61849000Y-64688000D03*
X60579000Y-64688000D03*
X59309000Y-64688000D03*
X58039000Y-64688000D03*
X56769000Y-64688000D03*
X55499000Y-64688000D03*
D18*
X76200000Y-69286000D03*
D17*
X78740000Y-69286000D03*
X81280000Y-69286000D03*
X83820000Y-69286000D03*
X86360000Y-69286000D03*
X88900000Y-69286000D03*
X91440000Y-69286000D03*
X93980000Y-69286000D03*
X96520000Y-69286000D03*
X96520000Y-77018000D03*
X93980000Y-77018000D03*
X91440000Y-77018000D03*
X88900000Y-77018000D03*
X86360000Y-77018000D03*
X83820000Y-77018000D03*
X81280000Y-77018000D03*
X78740000Y-77018000D03*
X76200000Y-77018000D03*
D10*
X105283000Y-59264000D03*
X106553000Y-59264000D03*
X107823000Y-59264000D03*
X109093000Y-59264000D03*
X110363000Y-59264000D03*
X111633000Y-59264000D03*
X112903000Y-59264000D03*
X114173000Y-59264000D03*
X114173000Y-64688000D03*
X112903000Y-64688000D03*
X111633000Y-64688000D03*
X110363000Y-64688000D03*
X109093000Y-64688000D03*
X107823000Y-64688000D03*
X106553000Y-64688000D03*
X105283000Y-64688000D03*
X130175000Y-64688000D03*
X131445000Y-64688000D03*
X132715000Y-64688000D03*
X133985000Y-64688000D03*
X135255000Y-64688000D03*
X136525000Y-64688000D03*
X137795000Y-64688000D03*
X139065000Y-64688000D03*
X139065000Y-59264000D03*
X137795000Y-59264000D03*
X136525000Y-59264000D03*
X135255000Y-59264000D03*
X133985000Y-59264000D03*
X132715000Y-59264000D03*
X131445000Y-59264000D03*
X130175000Y-59264000D03*
D17*
X101092000Y-77018000D03*
X103632000Y-77018000D03*
X106172000Y-77018000D03*
X108712000Y-77018000D03*
X111252000Y-77018000D03*
X113792000Y-77018000D03*
X116332000Y-77018000D03*
X118872000Y-77018000D03*
X121412000Y-77018000D03*
X121412000Y-69286000D03*
X118872000Y-69286000D03*
X116332000Y-69286000D03*
X113792000Y-69286000D03*
X111252000Y-69286000D03*
X108712000Y-69286000D03*
X106172000Y-69286000D03*
X103632000Y-69286000D03*
D18*
X101092000Y-69286000D03*
X125984000Y-69286000D03*
D17*
X128524000Y-69286000D03*
X131064000Y-69286000D03*
X133604000Y-69286000D03*
X136144000Y-69286000D03*
X138684000Y-69286000D03*
X141224000Y-69286000D03*
X143764000Y-69286000D03*
X146304000Y-69286000D03*
X146304000Y-77018000D03*
X143764000Y-77018000D03*
X141224000Y-77018000D03*
X138684000Y-77018000D03*
X136144000Y-77018000D03*
X133604000Y-77018000D03*
X131064000Y-77018000D03*
X128524000Y-77018000D03*
X125984000Y-77018000D03*
D10*
X155067000Y-64688000D03*
X156337000Y-64688000D03*
X157607000Y-64688000D03*
X158877000Y-64688000D03*
X160147000Y-64688000D03*
X161417000Y-64688000D03*
X162687000Y-64688000D03*
X163957000Y-64688000D03*
X163957000Y-59264000D03*
X162687000Y-59264000D03*
X161417000Y-59264000D03*
X160147000Y-59264000D03*
X158877000Y-59264000D03*
X157607000Y-59264000D03*
X156337000Y-59264000D03*
X155067000Y-59264000D03*
X179959000Y-59264000D03*
X181229000Y-59264000D03*
X182499000Y-59264000D03*
X183769000Y-59264000D03*
X185039000Y-59264000D03*
X186309000Y-59264000D03*
X187579000Y-59264000D03*
X188849000Y-59264000D03*
X188849000Y-64688000D03*
X187579000Y-64688000D03*
X186309000Y-64688000D03*
X185039000Y-64688000D03*
X183769000Y-64688000D03*
X182499000Y-64688000D03*
X181229000Y-64688000D03*
X179959000Y-64688000D03*
D18*
X150876000Y-69286000D03*
D17*
X153416000Y-69286000D03*
X155956000Y-69286000D03*
X158496000Y-69286000D03*
X161036000Y-69286000D03*
X163576000Y-69286000D03*
X166116000Y-69286000D03*
X168656000Y-69286000D03*
X171196000Y-69286000D03*
X171196000Y-77018000D03*
X168656000Y-77018000D03*
X166116000Y-77018000D03*
X163576000Y-77018000D03*
X161036000Y-77018000D03*
X158496000Y-77018000D03*
X155956000Y-77018000D03*
X153416000Y-77018000D03*
X150876000Y-77018000D03*
X175768000Y-77018000D03*
X178308000Y-77018000D03*
X180848000Y-77018000D03*
X183388000Y-77018000D03*
X185928000Y-77018000D03*
X188468000Y-77018000D03*
X191008000Y-77018000D03*
X193548000Y-77018000D03*
X196088000Y-77018000D03*
X196088000Y-69286000D03*
X193548000Y-69286000D03*
X191008000Y-69286000D03*
X188468000Y-69286000D03*
X185928000Y-69286000D03*
X183388000Y-69286000D03*
X180848000Y-69286000D03*
X178308000Y-69286000D03*
D18*
X175768000Y-69286000D03*
D14*
G36*
X74817504Y-60285204D02*
G01*
X74841773Y-60288804D01*
X74865571Y-60294765D01*
X74888671Y-60303030D01*
X74910849Y-60313520D01*
X74931893Y-60326133D01*
X74951598Y-60340747D01*
X74969777Y-60357223D01*
X74986253Y-60375402D01*
X75000867Y-60395107D01*
X75013480Y-60416151D01*
X75023970Y-60438329D01*
X75032235Y-60461429D01*
X75038196Y-60485227D01*
X75041796Y-60509496D01*
X75043000Y-60534000D01*
X75043000Y-61459000D01*
X75041796Y-61483504D01*
X75038196Y-61507773D01*
X75032235Y-61531571D01*
X75023970Y-61554671D01*
X75013480Y-61576849D01*
X75000867Y-61597893D01*
X74986253Y-61617598D01*
X74969777Y-61635777D01*
X74951598Y-61652253D01*
X74931893Y-61666867D01*
X74910849Y-61679480D01*
X74888671Y-61689970D01*
X74865571Y-61698235D01*
X74841773Y-61704196D01*
X74817504Y-61707796D01*
X74793000Y-61709000D01*
X73543000Y-61709000D01*
X73518496Y-61707796D01*
X73494227Y-61704196D01*
X73470429Y-61698235D01*
X73447329Y-61689970D01*
X73425151Y-61679480D01*
X73404107Y-61666867D01*
X73384402Y-61652253D01*
X73366223Y-61635777D01*
X73349747Y-61617598D01*
X73335133Y-61597893D01*
X73322520Y-61576849D01*
X73312030Y-61554671D01*
X73303765Y-61531571D01*
X73297804Y-61507773D01*
X73294204Y-61483504D01*
X73293000Y-61459000D01*
X73293000Y-60534000D01*
X73294204Y-60509496D01*
X73297804Y-60485227D01*
X73303765Y-60461429D01*
X73312030Y-60438329D01*
X73322520Y-60416151D01*
X73335133Y-60395107D01*
X73349747Y-60375402D01*
X73366223Y-60357223D01*
X73384402Y-60340747D01*
X73404107Y-60326133D01*
X73425151Y-60313520D01*
X73447329Y-60303030D01*
X73470429Y-60294765D01*
X73494227Y-60288804D01*
X73518496Y-60285204D01*
X73543000Y-60284000D01*
X74793000Y-60284000D01*
X74817504Y-60285204D01*
X74817504Y-60285204D01*
G37*
D15*
X74168000Y-60996500D03*
D14*
G36*
X74817504Y-63260204D02*
G01*
X74841773Y-63263804D01*
X74865571Y-63269765D01*
X74888671Y-63278030D01*
X74910849Y-63288520D01*
X74931893Y-63301133D01*
X74951598Y-63315747D01*
X74969777Y-63332223D01*
X74986253Y-63350402D01*
X75000867Y-63370107D01*
X75013480Y-63391151D01*
X75023970Y-63413329D01*
X75032235Y-63436429D01*
X75038196Y-63460227D01*
X75041796Y-63484496D01*
X75043000Y-63509000D01*
X75043000Y-64434000D01*
X75041796Y-64458504D01*
X75038196Y-64482773D01*
X75032235Y-64506571D01*
X75023970Y-64529671D01*
X75013480Y-64551849D01*
X75000867Y-64572893D01*
X74986253Y-64592598D01*
X74969777Y-64610777D01*
X74951598Y-64627253D01*
X74931893Y-64641867D01*
X74910849Y-64654480D01*
X74888671Y-64664970D01*
X74865571Y-64673235D01*
X74841773Y-64679196D01*
X74817504Y-64682796D01*
X74793000Y-64684000D01*
X73543000Y-64684000D01*
X73518496Y-64682796D01*
X73494227Y-64679196D01*
X73470429Y-64673235D01*
X73447329Y-64664970D01*
X73425151Y-64654480D01*
X73404107Y-64641867D01*
X73384402Y-64627253D01*
X73366223Y-64610777D01*
X73349747Y-64592598D01*
X73335133Y-64572893D01*
X73322520Y-64551849D01*
X73312030Y-64529671D01*
X73303765Y-64506571D01*
X73297804Y-64482773D01*
X73294204Y-64458504D01*
X73293000Y-64434000D01*
X73293000Y-63509000D01*
X73294204Y-63484496D01*
X73297804Y-63460227D01*
X73303765Y-63436429D01*
X73312030Y-63413329D01*
X73322520Y-63391151D01*
X73335133Y-63370107D01*
X73349747Y-63350402D01*
X73366223Y-63332223D01*
X73384402Y-63315747D01*
X73404107Y-63301133D01*
X73425151Y-63288520D01*
X73447329Y-63278030D01*
X73470429Y-63269765D01*
X73494227Y-63263804D01*
X73518496Y-63260204D01*
X73543000Y-63259000D01*
X74793000Y-63259000D01*
X74817504Y-63260204D01*
X74817504Y-63260204D01*
G37*
D15*
X74168000Y-63971500D03*
D14*
G36*
X34177504Y-93740204D02*
G01*
X34201773Y-93743804D01*
X34225571Y-93749765D01*
X34248671Y-93758030D01*
X34270849Y-93768520D01*
X34291893Y-93781133D01*
X34311598Y-93795747D01*
X34329777Y-93812223D01*
X34346253Y-93830402D01*
X34360867Y-93850107D01*
X34373480Y-93871151D01*
X34383970Y-93893329D01*
X34392235Y-93916429D01*
X34398196Y-93940227D01*
X34401796Y-93964496D01*
X34403000Y-93989000D01*
X34403000Y-94914000D01*
X34401796Y-94938504D01*
X34398196Y-94962773D01*
X34392235Y-94986571D01*
X34383970Y-95009671D01*
X34373480Y-95031849D01*
X34360867Y-95052893D01*
X34346253Y-95072598D01*
X34329777Y-95090777D01*
X34311598Y-95107253D01*
X34291893Y-95121867D01*
X34270849Y-95134480D01*
X34248671Y-95144970D01*
X34225571Y-95153235D01*
X34201773Y-95159196D01*
X34177504Y-95162796D01*
X34153000Y-95164000D01*
X32903000Y-95164000D01*
X32878496Y-95162796D01*
X32854227Y-95159196D01*
X32830429Y-95153235D01*
X32807329Y-95144970D01*
X32785151Y-95134480D01*
X32764107Y-95121867D01*
X32744402Y-95107253D01*
X32726223Y-95090777D01*
X32709747Y-95072598D01*
X32695133Y-95052893D01*
X32682520Y-95031849D01*
X32672030Y-95009671D01*
X32663765Y-94986571D01*
X32657804Y-94962773D01*
X32654204Y-94938504D01*
X32653000Y-94914000D01*
X32653000Y-93989000D01*
X32654204Y-93964496D01*
X32657804Y-93940227D01*
X32663765Y-93916429D01*
X32672030Y-93893329D01*
X32682520Y-93871151D01*
X32695133Y-93850107D01*
X32709747Y-93830402D01*
X32726223Y-93812223D01*
X32744402Y-93795747D01*
X32764107Y-93781133D01*
X32785151Y-93768520D01*
X32807329Y-93758030D01*
X32830429Y-93749765D01*
X32854227Y-93743804D01*
X32878496Y-93740204D01*
X32903000Y-93739000D01*
X34153000Y-93739000D01*
X34177504Y-93740204D01*
X34177504Y-93740204D01*
G37*
D15*
X33528000Y-94451500D03*
D14*
G36*
X34177504Y-90765204D02*
G01*
X34201773Y-90768804D01*
X34225571Y-90774765D01*
X34248671Y-90783030D01*
X34270849Y-90793520D01*
X34291893Y-90806133D01*
X34311598Y-90820747D01*
X34329777Y-90837223D01*
X34346253Y-90855402D01*
X34360867Y-90875107D01*
X34373480Y-90896151D01*
X34383970Y-90918329D01*
X34392235Y-90941429D01*
X34398196Y-90965227D01*
X34401796Y-90989496D01*
X34403000Y-91014000D01*
X34403000Y-91939000D01*
X34401796Y-91963504D01*
X34398196Y-91987773D01*
X34392235Y-92011571D01*
X34383970Y-92034671D01*
X34373480Y-92056849D01*
X34360867Y-92077893D01*
X34346253Y-92097598D01*
X34329777Y-92115777D01*
X34311598Y-92132253D01*
X34291893Y-92146867D01*
X34270849Y-92159480D01*
X34248671Y-92169970D01*
X34225571Y-92178235D01*
X34201773Y-92184196D01*
X34177504Y-92187796D01*
X34153000Y-92189000D01*
X32903000Y-92189000D01*
X32878496Y-92187796D01*
X32854227Y-92184196D01*
X32830429Y-92178235D01*
X32807329Y-92169970D01*
X32785151Y-92159480D01*
X32764107Y-92146867D01*
X32744402Y-92132253D01*
X32726223Y-92115777D01*
X32709747Y-92097598D01*
X32695133Y-92077893D01*
X32682520Y-92056849D01*
X32672030Y-92034671D01*
X32663765Y-92011571D01*
X32657804Y-91987773D01*
X32654204Y-91963504D01*
X32653000Y-91939000D01*
X32653000Y-91014000D01*
X32654204Y-90989496D01*
X32657804Y-90965227D01*
X32663765Y-90941429D01*
X32672030Y-90918329D01*
X32682520Y-90896151D01*
X32695133Y-90875107D01*
X32709747Y-90855402D01*
X32726223Y-90837223D01*
X32744402Y-90820747D01*
X32764107Y-90806133D01*
X32785151Y-90793520D01*
X32807329Y-90783030D01*
X32830429Y-90774765D01*
X32854227Y-90768804D01*
X32878496Y-90765204D01*
X32903000Y-90764000D01*
X34153000Y-90764000D01*
X34177504Y-90765204D01*
X34177504Y-90765204D01*
G37*
D15*
X33528000Y-91476500D03*
D14*
G36*
X29097504Y-90765204D02*
G01*
X29121773Y-90768804D01*
X29145571Y-90774765D01*
X29168671Y-90783030D01*
X29190849Y-90793520D01*
X29211893Y-90806133D01*
X29231598Y-90820747D01*
X29249777Y-90837223D01*
X29266253Y-90855402D01*
X29280867Y-90875107D01*
X29293480Y-90896151D01*
X29303970Y-90918329D01*
X29312235Y-90941429D01*
X29318196Y-90965227D01*
X29321796Y-90989496D01*
X29323000Y-91014000D01*
X29323000Y-91939000D01*
X29321796Y-91963504D01*
X29318196Y-91987773D01*
X29312235Y-92011571D01*
X29303970Y-92034671D01*
X29293480Y-92056849D01*
X29280867Y-92077893D01*
X29266253Y-92097598D01*
X29249777Y-92115777D01*
X29231598Y-92132253D01*
X29211893Y-92146867D01*
X29190849Y-92159480D01*
X29168671Y-92169970D01*
X29145571Y-92178235D01*
X29121773Y-92184196D01*
X29097504Y-92187796D01*
X29073000Y-92189000D01*
X27823000Y-92189000D01*
X27798496Y-92187796D01*
X27774227Y-92184196D01*
X27750429Y-92178235D01*
X27727329Y-92169970D01*
X27705151Y-92159480D01*
X27684107Y-92146867D01*
X27664402Y-92132253D01*
X27646223Y-92115777D01*
X27629747Y-92097598D01*
X27615133Y-92077893D01*
X27602520Y-92056849D01*
X27592030Y-92034671D01*
X27583765Y-92011571D01*
X27577804Y-91987773D01*
X27574204Y-91963504D01*
X27573000Y-91939000D01*
X27573000Y-91014000D01*
X27574204Y-90989496D01*
X27577804Y-90965227D01*
X27583765Y-90941429D01*
X27592030Y-90918329D01*
X27602520Y-90896151D01*
X27615133Y-90875107D01*
X27629747Y-90855402D01*
X27646223Y-90837223D01*
X27664402Y-90820747D01*
X27684107Y-90806133D01*
X27705151Y-90793520D01*
X27727329Y-90783030D01*
X27750429Y-90774765D01*
X27774227Y-90768804D01*
X27798496Y-90765204D01*
X27823000Y-90764000D01*
X29073000Y-90764000D01*
X29097504Y-90765204D01*
X29097504Y-90765204D01*
G37*
D15*
X28448000Y-91476500D03*
D14*
G36*
X29097504Y-93740204D02*
G01*
X29121773Y-93743804D01*
X29145571Y-93749765D01*
X29168671Y-93758030D01*
X29190849Y-93768520D01*
X29211893Y-93781133D01*
X29231598Y-93795747D01*
X29249777Y-93812223D01*
X29266253Y-93830402D01*
X29280867Y-93850107D01*
X29293480Y-93871151D01*
X29303970Y-93893329D01*
X29312235Y-93916429D01*
X29318196Y-93940227D01*
X29321796Y-93964496D01*
X29323000Y-93989000D01*
X29323000Y-94914000D01*
X29321796Y-94938504D01*
X29318196Y-94962773D01*
X29312235Y-94986571D01*
X29303970Y-95009671D01*
X29293480Y-95031849D01*
X29280867Y-95052893D01*
X29266253Y-95072598D01*
X29249777Y-95090777D01*
X29231598Y-95107253D01*
X29211893Y-95121867D01*
X29190849Y-95134480D01*
X29168671Y-95144970D01*
X29145571Y-95153235D01*
X29121773Y-95159196D01*
X29097504Y-95162796D01*
X29073000Y-95164000D01*
X27823000Y-95164000D01*
X27798496Y-95162796D01*
X27774227Y-95159196D01*
X27750429Y-95153235D01*
X27727329Y-95144970D01*
X27705151Y-95134480D01*
X27684107Y-95121867D01*
X27664402Y-95107253D01*
X27646223Y-95090777D01*
X27629747Y-95072598D01*
X27615133Y-95052893D01*
X27602520Y-95031849D01*
X27592030Y-95009671D01*
X27583765Y-94986571D01*
X27577804Y-94962773D01*
X27574204Y-94938504D01*
X27573000Y-94914000D01*
X27573000Y-93989000D01*
X27574204Y-93964496D01*
X27577804Y-93940227D01*
X27583765Y-93916429D01*
X27592030Y-93893329D01*
X27602520Y-93871151D01*
X27615133Y-93850107D01*
X27629747Y-93830402D01*
X27646223Y-93812223D01*
X27664402Y-93795747D01*
X27684107Y-93781133D01*
X27705151Y-93768520D01*
X27727329Y-93758030D01*
X27750429Y-93749765D01*
X27774227Y-93743804D01*
X27798496Y-93740204D01*
X27823000Y-93739000D01*
X29073000Y-93739000D01*
X29097504Y-93740204D01*
X29097504Y-93740204D01*
G37*
D15*
X28448000Y-94451500D03*
D19*
X37592000Y-93980000D03*
D20*
X37592000Y-91440000D03*
X37592000Y-88900000D03*
D11*
X19812000Y-99314000D03*
X19812000Y-83566000D03*
X48260000Y-99314000D03*
X48260000Y-83566000D03*
D21*
X190836000Y-64688000D03*
X165944000Y-64688000D03*
X141052000Y-64688000D03*
X91268000Y-64688000D03*
X66376000Y-64688000D03*
X59436000Y-60960000D03*
X84328000Y-60960000D03*
X109220000Y-60960000D03*
X159004000Y-60960000D03*
X134112000Y-60960000D03*
X183896000Y-60960000D03*
X116332000Y-64516000D03*
X62408000Y-93040000D03*
X78232000Y-94996000D03*
X71628000Y-89916000D03*
X56896000Y-60960000D03*
X45212000Y-60960000D03*
X95504000Y-87376000D03*
X106680000Y-60960000D03*
X122428000Y-86868000D03*
X145288000Y-87376000D03*
X156464000Y-60960000D03*
X181356000Y-60960000D03*
X171196000Y-86868000D03*
X195072000Y-87376000D03*
X62992000Y-57404000D03*
X60452000Y-57404000D03*
X161544000Y-60960000D03*
X161544000Y-56388000D03*
X186436000Y-60960000D03*
X186436000Y-56388000D03*
X136652000Y-60960000D03*
X136652000Y-56388000D03*
X111760000Y-56388000D03*
X111760000Y-60960000D03*
X86868000Y-56388000D03*
X86868000Y-60960000D03*
X61976000Y-55372000D03*
X81788000Y-60960000D03*
X131572000Y-60960000D03*
D22*
X186464914Y-94687086D02*
X186464914Y-97235555D01*
X187362000Y-93040000D02*
X187362000Y-93790000D01*
X187362000Y-93790000D02*
X186464914Y-94687086D01*
X163604914Y-94687086D02*
X163604914Y-97235555D01*
X164502000Y-93790000D02*
X163604914Y-94687086D01*
X164502000Y-93040000D02*
X164502000Y-93790000D01*
X137578000Y-93040000D02*
X137578000Y-93790000D01*
X136680914Y-94687086D02*
X136680914Y-97235555D01*
X137578000Y-93790000D02*
X136680914Y-94687086D01*
X114718000Y-93790000D02*
X113820914Y-94687086D01*
X114718000Y-93040000D02*
X114718000Y-93790000D01*
X113820914Y-94687086D02*
X113820914Y-97235555D01*
X87794000Y-93548000D02*
X87794000Y-94298000D01*
X87794000Y-94298000D02*
X86896914Y-95195086D01*
X86896914Y-95195086D02*
X86896914Y-97743555D01*
X64934000Y-93790000D02*
X64036914Y-94687086D01*
X64036914Y-94687086D02*
X64036914Y-97235555D01*
X64934000Y-93040000D02*
X64934000Y-93790000D01*
X192323500Y-64688000D02*
X193040000Y-63971500D01*
X188849000Y-64688000D02*
X190836000Y-64688000D01*
X167431500Y-64688000D02*
X168148000Y-63971500D01*
X163957000Y-64688000D02*
X165944000Y-64688000D01*
X142539500Y-64688000D02*
X143256000Y-63971500D01*
X139065000Y-64688000D02*
X141052000Y-64688000D01*
X117647500Y-64688000D02*
X118364000Y-63971500D01*
X114173000Y-64688000D02*
X117647500Y-64688000D01*
X92755500Y-64688000D02*
X93472000Y-63971500D01*
X89281000Y-64688000D02*
X91268000Y-64688000D01*
X67863500Y-64688000D02*
X68580000Y-63971500D01*
X64389000Y-64688000D02*
X66376000Y-64688000D01*
X190836000Y-64688000D02*
X192323500Y-64688000D01*
X165944000Y-64688000D02*
X167431500Y-64688000D01*
X141052000Y-64688000D02*
X142539500Y-64688000D01*
X91268000Y-64688000D02*
X92755500Y-64688000D01*
X66376000Y-64688000D02*
X67863500Y-64688000D01*
X59309000Y-59264000D02*
X59309000Y-60833000D01*
X59309000Y-60833000D02*
X59436000Y-60960000D01*
X84201000Y-60833000D02*
X84328000Y-60960000D01*
X84201000Y-59264000D02*
X84201000Y-60833000D01*
X109093000Y-60833000D02*
X109220000Y-60960000D01*
X109093000Y-59264000D02*
X109093000Y-60833000D01*
X158877000Y-60833000D02*
X159004000Y-60960000D01*
X158877000Y-59264000D02*
X158877000Y-60833000D01*
X133985000Y-59264000D02*
X133985000Y-60833000D01*
X133985000Y-60833000D02*
X134112000Y-60960000D01*
X183769000Y-59264000D02*
X183769000Y-60833000D01*
X20537500Y-83566000D02*
X19812000Y-83566000D01*
X28448000Y-91476500D02*
X20537500Y-83566000D01*
X86944000Y-89840000D02*
X85001501Y-91782499D01*
X87794000Y-89840000D02*
X86944000Y-89840000D01*
X85001501Y-91782499D02*
X81445501Y-91782499D01*
X81445501Y-91782499D02*
X81445501Y-93306499D01*
X81445501Y-93306499D02*
X79756000Y-94996000D01*
X61034000Y-93040000D02*
X60034000Y-93040000D01*
X79756000Y-94996000D02*
X78232000Y-94996000D01*
X61034000Y-93040000D02*
X62408000Y-93040000D01*
X30480000Y-80774792D02*
X30480000Y-79502000D01*
X32509208Y-82804000D02*
X30480000Y-80774792D01*
X41148000Y-82804000D02*
X32509208Y-82804000D01*
X47020671Y-88676671D02*
X41148000Y-82804000D01*
X63934000Y-89840000D02*
X62770671Y-88676671D01*
X55087329Y-88676671D02*
X47020671Y-88676671D01*
X62770671Y-88676671D02*
X57180671Y-88676671D01*
X57180671Y-88676671D02*
X56896000Y-88392000D01*
X64934000Y-89840000D02*
X63934000Y-89840000D01*
X56896000Y-88392000D02*
X55372000Y-88392000D01*
X55372000Y-88392000D02*
X55087329Y-88676671D01*
X113718000Y-89840000D02*
X114718000Y-89840000D01*
X112118000Y-91440000D02*
X113718000Y-89840000D01*
X86580410Y-91440000D02*
X112118000Y-91440000D01*
X82894000Y-93040000D02*
X84980410Y-93040000D01*
X84980410Y-93040000D02*
X86580410Y-91440000D01*
X137236000Y-89840000D02*
X138086000Y-89840000D01*
X135293501Y-91782499D02*
X137236000Y-89840000D01*
X130898499Y-91782499D02*
X135293501Y-91782499D01*
X130556000Y-91440000D02*
X130898499Y-91782499D01*
X129032000Y-91440000D02*
X130556000Y-91440000D01*
X128689501Y-91782499D02*
X129032000Y-91440000D01*
X120230499Y-91782499D02*
X128689501Y-91782499D01*
X110326000Y-93040000D02*
X111326000Y-93040000D01*
X112583501Y-91782499D02*
X116497501Y-91782499D01*
X116497501Y-91782499D02*
X116840000Y-91440000D01*
X111326000Y-93040000D02*
X112583501Y-91782499D01*
X116840000Y-91440000D02*
X119888000Y-91440000D01*
X119888000Y-91440000D02*
X120230499Y-91782499D01*
X135272410Y-93040000D02*
X136872410Y-91440000D01*
X133186000Y-93040000D02*
X135272410Y-93040000D01*
X162636000Y-89840000D02*
X161036000Y-91440000D01*
X164502000Y-89840000D02*
X162636000Y-89840000D01*
X136872410Y-91440000D02*
X161036000Y-91440000D01*
X178308000Y-91440000D02*
X184912000Y-91440000D01*
X177965501Y-91782499D02*
X178308000Y-91440000D01*
X168998499Y-91782499D02*
X177965501Y-91782499D01*
X159602000Y-93040000D02*
X160602000Y-93040000D01*
X160602000Y-93040000D02*
X161859501Y-91782499D01*
X184912000Y-91440000D02*
X186512000Y-89840000D01*
X161859501Y-91782499D02*
X166281501Y-91782499D01*
X186512000Y-89840000D02*
X187362000Y-89840000D01*
X166281501Y-91782499D02*
X166624000Y-91440000D01*
X166624000Y-91440000D02*
X168656000Y-91440000D01*
X168656000Y-91440000D02*
X168998499Y-91782499D01*
D23*
X64036915Y-85644445D02*
X64036915Y-83848915D01*
X64036915Y-83848915D02*
X61468000Y-81280000D01*
X61468000Y-81280000D02*
X54356000Y-81280000D01*
X51308000Y-78232000D02*
X51308000Y-77018000D01*
X54356000Y-81280000D02*
X51308000Y-78232000D01*
X66726641Y-84506641D02*
X66726641Y-87197360D01*
X62484000Y-80264000D02*
X66726641Y-84506641D01*
X55880000Y-80264000D02*
X62484000Y-80264000D01*
X53848000Y-77018000D02*
X53848000Y-78232000D01*
X53848000Y-78232000D02*
X55880000Y-80264000D01*
X56388000Y-78232000D02*
X56388000Y-77018000D01*
X57404000Y-79248000D02*
X56388000Y-78232000D01*
X64008000Y-79248000D02*
X57404000Y-79248000D01*
X71628000Y-89916000D02*
X71628000Y-86868000D01*
X71628000Y-86868000D02*
X64008000Y-79248000D01*
D22*
X67681233Y-96637234D02*
X66726640Y-95682641D01*
D23*
X72643999Y-101600000D02*
X67681233Y-96637234D01*
X189154640Y-95682641D02*
X189154640Y-96805016D01*
X89916000Y-97134376D02*
X89916000Y-101600000D01*
X89586640Y-96805016D02*
X89916000Y-97134376D01*
X89586640Y-95682641D02*
X89586640Y-96805016D01*
X116840000Y-97134376D02*
X116840000Y-101600000D01*
X116510640Y-96805016D02*
X116840000Y-97134376D01*
X116510640Y-95682641D02*
X116510640Y-96805016D01*
X116840000Y-101600000D02*
X89916000Y-101600000D01*
X139700000Y-97134376D02*
X139700000Y-101600000D01*
X139370640Y-96805016D02*
X139700000Y-97134376D01*
X139370640Y-95682641D02*
X139370640Y-96805016D01*
X139700000Y-101600000D02*
X116840000Y-101600000D01*
X166294640Y-96805016D02*
X166624000Y-97134376D01*
X166294640Y-95682641D02*
X166294640Y-96805016D01*
X166624000Y-97134376D02*
X166624000Y-101600000D01*
X166624000Y-101600000D02*
X139700000Y-101600000D01*
X189154640Y-96805016D02*
X189484000Y-97134376D01*
X189484000Y-97134376D02*
X189484000Y-99060000D01*
X189484000Y-99060000D02*
X186944000Y-101600000D01*
X183896000Y-101600000D02*
X166624000Y-101600000D01*
X196088000Y-69286000D02*
X197302000Y-69286000D01*
X197302000Y-69286000D02*
X197612000Y-69596000D01*
X197612000Y-96012000D02*
X192024000Y-101600000D01*
X192024000Y-101600000D02*
X186436000Y-101600000D01*
X186436000Y-101600000D02*
X184912000Y-101600000D01*
D22*
X186944000Y-101600000D02*
X184912000Y-101600000D01*
D23*
X184912000Y-101600000D02*
X183896000Y-101600000D01*
X197612000Y-71120000D02*
X197612000Y-96012000D01*
X197612000Y-69596000D02*
X197612000Y-71120000D01*
X71628000Y-71120000D02*
X71628000Y-69286000D01*
X96520000Y-69286000D02*
X96520000Y-71120000D01*
X121412000Y-69286000D02*
X121412000Y-71120000D01*
X121412000Y-71120000D02*
X71628000Y-71120000D01*
X146304000Y-69286000D02*
X146304000Y-71120000D01*
X146304000Y-71120000D02*
X121412000Y-71120000D01*
X171196000Y-69286000D02*
X171196000Y-71120000D01*
X197612000Y-71120000D02*
X171196000Y-71120000D01*
X171196000Y-71120000D02*
X146304000Y-71120000D01*
X48260000Y-99314000D02*
X57658000Y-99314000D01*
X57658000Y-99314000D02*
X59944000Y-101600000D01*
X59944000Y-101600000D02*
X72644000Y-101600000D01*
X89916000Y-101600000D02*
X72644000Y-101600000D01*
X72644000Y-101600000D02*
X72643999Y-101600000D01*
D22*
X63119000Y-65700500D02*
X63458500Y-66040000D01*
X63119000Y-64688000D02*
X63119000Y-65700500D01*
X69088000Y-68072000D02*
X69088000Y-69286000D01*
X63458500Y-66040000D02*
X63500000Y-66040000D01*
X63500000Y-66040000D02*
X64516000Y-67056000D01*
X64516000Y-67056000D02*
X68072000Y-67056000D01*
X68072000Y-67056000D02*
X69088000Y-68072000D01*
X61849000Y-65913000D02*
X62132990Y-66196990D01*
X66548000Y-69286000D02*
X66548000Y-68072000D01*
X66548000Y-68072000D02*
X66040000Y-67564000D01*
X64078420Y-67506010D02*
X63120410Y-66548000D01*
X66040000Y-67564000D02*
X65982010Y-67506010D01*
X65982010Y-67506010D02*
X64078420Y-67506010D01*
X63120410Y-66548000D02*
X62484000Y-66548000D01*
X61849000Y-65913000D02*
X61849000Y-65659000D01*
X62484000Y-66548000D02*
X61849000Y-65913000D01*
X61849000Y-64688000D02*
X61849000Y-65659000D01*
X60579000Y-64688000D02*
X60579000Y-65857000D01*
X60579000Y-66546590D02*
X60579000Y-65857000D01*
X61088410Y-67056000D02*
X60579000Y-66546590D01*
X62992000Y-67056000D02*
X61088410Y-67056000D01*
X64008000Y-69286000D02*
X64008000Y-68072000D01*
X64008000Y-68072000D02*
X62992000Y-67056000D01*
X59309000Y-64688000D02*
X59309000Y-65913000D01*
X61468000Y-68072000D02*
X61468000Y-69286000D01*
X59309000Y-65913000D02*
X61468000Y-68072000D01*
X58039000Y-65700500D02*
X58378500Y-66040000D01*
X58039000Y-64688000D02*
X58039000Y-65700500D01*
X58378500Y-66040000D02*
X58420000Y-66040000D01*
X58928000Y-66548000D02*
X58928000Y-69286000D01*
X58420000Y-66040000D02*
X58928000Y-66548000D01*
X56388000Y-66081500D02*
X56388000Y-69286000D01*
X56769000Y-64688000D02*
X56769000Y-65700500D01*
X56769000Y-65700500D02*
X56388000Y-66081500D01*
X55499000Y-64688000D02*
X55499000Y-65913000D01*
X53848000Y-67564000D02*
X53848000Y-69286000D01*
X55499000Y-65913000D02*
X53848000Y-67564000D01*
X56769000Y-59264000D02*
X56769000Y-60833000D01*
X56769000Y-60833000D02*
X56896000Y-60960000D01*
X63119000Y-60276500D02*
X63802500Y-60960000D01*
X63119000Y-59264000D02*
X63119000Y-60276500D01*
X63802500Y-60960000D02*
X66040000Y-60960000D01*
X66040000Y-60960000D02*
X66548000Y-60452000D01*
X66548000Y-60452000D02*
X66548000Y-59944000D01*
X66548000Y-59944000D02*
X67056000Y-59436000D01*
X67056000Y-59436000D02*
X73660000Y-59436000D01*
X74168000Y-59944000D02*
X74168000Y-60996500D01*
X73660000Y-59436000D02*
X74168000Y-59944000D01*
X80391000Y-64688000D02*
X80391000Y-65913000D01*
X80391000Y-65913000D02*
X78740000Y-67564000D01*
X78740000Y-67564000D02*
X78740000Y-69286000D01*
X81661000Y-65700500D02*
X81280000Y-66081500D01*
X81280000Y-66081500D02*
X81280000Y-69286000D01*
X81661000Y-64688000D02*
X81661000Y-65700500D01*
X83820000Y-66548000D02*
X83820000Y-69286000D01*
X83312000Y-66040000D02*
X83820000Y-66548000D01*
X83270500Y-66040000D02*
X83312000Y-66040000D01*
X82931000Y-64688000D02*
X82931000Y-65700500D01*
X82931000Y-65700500D02*
X83270500Y-66040000D01*
X84201000Y-64688000D02*
X84201000Y-65913000D01*
X84201000Y-65913000D02*
X86360000Y-68072000D01*
X86360000Y-68072000D02*
X86360000Y-69286000D01*
X87884000Y-67056000D02*
X85980410Y-67056000D01*
X88900000Y-69286000D02*
X88900000Y-68072000D01*
X88900000Y-68072000D02*
X87884000Y-67056000D01*
X85471000Y-66546590D02*
X85471000Y-65857000D01*
X85980410Y-67056000D02*
X85471000Y-66546590D01*
X85471000Y-64688000D02*
X85471000Y-65857000D01*
X91440000Y-69286000D02*
X91440000Y-68072000D01*
X91440000Y-68072000D02*
X90932000Y-67564000D01*
X88970420Y-67506010D02*
X88012410Y-66548000D01*
X90874010Y-67506010D02*
X88970420Y-67506010D01*
X86741000Y-65913000D02*
X86741000Y-65659000D01*
X90932000Y-67564000D02*
X90874010Y-67506010D01*
X87376000Y-66548000D02*
X86741000Y-65913000D01*
X86741000Y-64688000D02*
X86741000Y-65659000D01*
X88012410Y-66548000D02*
X87376000Y-66548000D01*
X86741000Y-65913000D02*
X87024990Y-66196990D01*
X88011000Y-65700500D02*
X88350500Y-66040000D01*
X93980000Y-68072000D02*
X93980000Y-69286000D01*
X88011000Y-64688000D02*
X88011000Y-65700500D01*
X88350500Y-66040000D02*
X88392000Y-66040000D01*
X92964000Y-67056000D02*
X93980000Y-68072000D01*
X88392000Y-66040000D02*
X89408000Y-67056000D01*
X89408000Y-67056000D02*
X92964000Y-67056000D01*
D23*
X89916000Y-81788000D02*
X95504000Y-87376000D01*
X84836000Y-81788000D02*
X89916000Y-81788000D01*
X81280000Y-78232000D02*
X84836000Y-81788000D01*
X81280000Y-77018000D02*
X81280000Y-78232000D01*
X89586641Y-87197360D02*
X89586641Y-84506641D01*
X87368010Y-82288010D02*
X82288010Y-82288010D01*
X89586641Y-84506641D02*
X87368010Y-82288010D01*
X82288010Y-82288010D02*
X78740000Y-78740000D01*
X78740000Y-78740000D02*
X78740000Y-77018000D01*
X86204036Y-84951566D02*
X86204036Y-84680036D01*
X86896915Y-85644445D02*
X86204036Y-84951566D01*
X86204036Y-84680036D02*
X84328000Y-82804000D01*
X84328000Y-82804000D02*
X79248000Y-82804000D01*
X76200000Y-79756000D02*
X76200000Y-77018000D01*
X79248000Y-82804000D02*
X76200000Y-79756000D01*
D22*
X106553000Y-59264000D02*
X106553000Y-60833000D01*
X112903000Y-65700500D02*
X113242500Y-66040000D01*
X117856000Y-67056000D02*
X118872000Y-68072000D01*
X118872000Y-68072000D02*
X118872000Y-69286000D01*
X113284000Y-66040000D02*
X114300000Y-67056000D01*
X113242500Y-66040000D02*
X113284000Y-66040000D01*
X112903000Y-64688000D02*
X112903000Y-65700500D01*
X114300000Y-67056000D02*
X117856000Y-67056000D01*
X116332000Y-69286000D02*
X116332000Y-68072000D01*
X115766010Y-67506010D02*
X113862420Y-67506010D01*
X111633000Y-65913000D02*
X111633000Y-65659000D01*
X115824000Y-67564000D02*
X115766010Y-67506010D01*
X112268000Y-66548000D02*
X111633000Y-65913000D01*
X112904410Y-66548000D02*
X112268000Y-66548000D01*
X111633000Y-64688000D02*
X111633000Y-65659000D01*
X113862420Y-67506010D02*
X112904410Y-66548000D01*
X116332000Y-68072000D02*
X115824000Y-67564000D01*
X111633000Y-65913000D02*
X111916990Y-66196990D01*
X112776000Y-67056000D02*
X110872410Y-67056000D01*
X110872410Y-67056000D02*
X110363000Y-66546590D01*
X110363000Y-64688000D02*
X110363000Y-65857000D01*
X110363000Y-66546590D02*
X110363000Y-65857000D01*
X113792000Y-69286000D02*
X113792000Y-68072000D01*
X113792000Y-68072000D02*
X112776000Y-67056000D01*
X111252000Y-68072000D02*
X111252000Y-69286000D01*
X109093000Y-64688000D02*
X109093000Y-65913000D01*
X109093000Y-65913000D02*
X111252000Y-68072000D01*
X108162500Y-66040000D02*
X108204000Y-66040000D01*
X108712000Y-66548000D02*
X108712000Y-69286000D01*
X107823000Y-65700500D02*
X108162500Y-66040000D01*
X107823000Y-64688000D02*
X107823000Y-65700500D01*
X108204000Y-66040000D02*
X108712000Y-66548000D01*
X106172000Y-66081500D02*
X106172000Y-69286000D01*
X106553000Y-64688000D02*
X106553000Y-65700500D01*
X106553000Y-65700500D02*
X106172000Y-66081500D01*
X105283000Y-64688000D02*
X105283000Y-65913000D01*
X105283000Y-65913000D02*
X103632000Y-67564000D01*
X103632000Y-67564000D02*
X103632000Y-69286000D01*
X128524000Y-67564000D02*
X128524000Y-69286000D01*
X130175000Y-65913000D02*
X128524000Y-67564000D01*
X130175000Y-64688000D02*
X130175000Y-65913000D01*
X131445000Y-65700500D02*
X131064000Y-66081500D01*
X131445000Y-64688000D02*
X131445000Y-65700500D01*
X131064000Y-66081500D02*
X131064000Y-69286000D01*
X133604000Y-66548000D02*
X133604000Y-69286000D01*
X133054500Y-66040000D02*
X133096000Y-66040000D01*
X132715000Y-65700500D02*
X133054500Y-66040000D01*
X133096000Y-66040000D02*
X133604000Y-66548000D01*
X132715000Y-64688000D02*
X132715000Y-65700500D01*
X133985000Y-65913000D02*
X136144000Y-68072000D01*
X136144000Y-68072000D02*
X136144000Y-69286000D01*
X133985000Y-64688000D02*
X133985000Y-65913000D01*
X138684000Y-68072000D02*
X137668000Y-67056000D01*
X135255000Y-64688000D02*
X135255000Y-65857000D01*
X135255000Y-66546590D02*
X135255000Y-65857000D01*
X138684000Y-69286000D02*
X138684000Y-68072000D01*
X135764410Y-67056000D02*
X135255000Y-66546590D01*
X137668000Y-67056000D02*
X135764410Y-67056000D01*
X137796410Y-66548000D02*
X137160000Y-66548000D01*
X136525000Y-65913000D02*
X136808990Y-66196990D01*
X141224000Y-68072000D02*
X140716000Y-67564000D01*
X136525000Y-64688000D02*
X136525000Y-65659000D01*
X138754420Y-67506010D02*
X137796410Y-66548000D01*
X140658010Y-67506010D02*
X138754420Y-67506010D01*
X136525000Y-65913000D02*
X136525000Y-65659000D01*
X140716000Y-67564000D02*
X140658010Y-67506010D01*
X141224000Y-69286000D02*
X141224000Y-68072000D01*
X137160000Y-66548000D02*
X136525000Y-65913000D01*
X137795000Y-64688000D02*
X137795000Y-65700500D01*
X139192000Y-67056000D02*
X142748000Y-67056000D01*
X142748000Y-67056000D02*
X143764000Y-68072000D01*
X143764000Y-68072000D02*
X143764000Y-69286000D01*
X138134500Y-66040000D02*
X138176000Y-66040000D01*
X138176000Y-66040000D02*
X139192000Y-67056000D01*
X137795000Y-65700500D02*
X138134500Y-66040000D01*
D23*
X104140000Y-81280000D02*
X101092000Y-78232000D01*
X111252000Y-81280000D02*
X104140000Y-81280000D01*
X101092000Y-78232000D02*
X101092000Y-77018000D01*
X113820915Y-83848915D02*
X111252000Y-81280000D01*
X113820915Y-85644445D02*
X113820915Y-83848915D01*
X116510641Y-84506641D02*
X116510641Y-87197360D01*
X112268000Y-80264000D02*
X116510641Y-84506641D01*
X103632000Y-77018000D02*
X103632000Y-78232000D01*
X105664000Y-80264000D02*
X112268000Y-80264000D01*
X103632000Y-78232000D02*
X105664000Y-80264000D01*
X107188000Y-79248000D02*
X106172000Y-78232000D01*
X113792000Y-79248000D02*
X107188000Y-79248000D01*
X106172000Y-78232000D02*
X106172000Y-77018000D01*
D22*
X121412000Y-86868000D02*
X120650000Y-86106000D01*
X122428000Y-86868000D02*
X121412000Y-86868000D01*
D23*
X120650000Y-86106000D02*
X113792000Y-79248000D01*
X134620000Y-81788000D02*
X139700000Y-81788000D01*
X139700000Y-81788000D02*
X145288000Y-87376000D01*
X131064000Y-78232000D02*
X134620000Y-81788000D01*
X131064000Y-77018000D02*
X131064000Y-78232000D01*
X128524000Y-78740000D02*
X128524000Y-77018000D01*
X137152010Y-82288010D02*
X132072010Y-82288010D01*
X139370641Y-84506641D02*
X137152010Y-82288010D01*
X139370641Y-87197360D02*
X139370641Y-84506641D01*
X132072010Y-82288010D02*
X128524000Y-78740000D01*
X125984000Y-79756000D02*
X125984000Y-77018000D01*
X129032000Y-82804000D02*
X125984000Y-79756000D01*
X135988036Y-84680036D02*
X134112000Y-82804000D01*
X134112000Y-82804000D02*
X129032000Y-82804000D01*
X136680915Y-85644445D02*
X135988036Y-84951566D01*
D22*
X155067000Y-64688000D02*
X155067000Y-65913000D01*
X153416000Y-67564000D02*
X153416000Y-69286000D01*
X155067000Y-65913000D02*
X153416000Y-67564000D01*
X155956000Y-66081500D02*
X155956000Y-69286000D01*
X156337000Y-64688000D02*
X156337000Y-65700500D01*
X156337000Y-65700500D02*
X155956000Y-66081500D01*
X157988000Y-66040000D02*
X158496000Y-66548000D01*
X158496000Y-66548000D02*
X158496000Y-69286000D01*
X157946500Y-66040000D02*
X157988000Y-66040000D01*
X157607000Y-65700500D02*
X157946500Y-66040000D01*
X157607000Y-64688000D02*
X157607000Y-65700500D01*
X158877000Y-65913000D02*
X161036000Y-68072000D01*
X158877000Y-64688000D02*
X158877000Y-65913000D01*
X161036000Y-68072000D02*
X161036000Y-69286000D01*
X162560000Y-67056000D02*
X160656410Y-67056000D01*
X160147000Y-64688000D02*
X160147000Y-65857000D01*
X163576000Y-69286000D02*
X163576000Y-68072000D01*
X160147000Y-66546590D02*
X160147000Y-65857000D01*
X160656410Y-67056000D02*
X160147000Y-66546590D01*
X163576000Y-68072000D02*
X162560000Y-67056000D01*
X162052000Y-66548000D02*
X161417000Y-65913000D01*
X166116000Y-69286000D02*
X166116000Y-68072000D01*
X165550010Y-67506010D02*
X163646420Y-67506010D01*
X161417000Y-65913000D02*
X161417000Y-65659000D01*
X165608000Y-67564000D02*
X165550010Y-67506010D01*
X162688410Y-66548000D02*
X162052000Y-66548000D01*
X166116000Y-68072000D02*
X165608000Y-67564000D01*
X163646420Y-67506010D02*
X162688410Y-66548000D01*
X161417000Y-64688000D02*
X161417000Y-65659000D01*
X161417000Y-65913000D02*
X161700990Y-66196990D01*
X162687000Y-64688000D02*
X162687000Y-65700500D01*
X164084000Y-67056000D02*
X167640000Y-67056000D01*
X162687000Y-65700500D02*
X163026500Y-66040000D01*
X163026500Y-66040000D02*
X163068000Y-66040000D01*
X163068000Y-66040000D02*
X164084000Y-67056000D01*
X167640000Y-67056000D02*
X168656000Y-68072000D01*
X168656000Y-68072000D02*
X168656000Y-69286000D01*
X182499000Y-59264000D02*
X182499000Y-58039000D01*
X182499000Y-58039000D02*
X182372000Y-57912000D01*
X182372000Y-57912000D02*
X175768000Y-57912000D01*
X175768000Y-57912000D02*
X181584500Y-57912000D01*
X163957000Y-59264000D02*
X163957000Y-58039000D01*
X164084000Y-57912000D02*
X165100000Y-57912000D01*
X163957000Y-58039000D02*
X164084000Y-57912000D01*
X165100000Y-57912000D02*
X175768000Y-57912000D01*
X156337000Y-59264000D02*
X156337000Y-60833000D01*
X181229000Y-59264000D02*
X181229000Y-60833000D01*
X187579000Y-65700500D02*
X187918500Y-66040000D01*
X187579000Y-64688000D02*
X187579000Y-65700500D01*
X188976000Y-67056000D02*
X192532000Y-67056000D01*
X192532000Y-67056000D02*
X193548000Y-68072000D01*
X193548000Y-68072000D02*
X193548000Y-69286000D01*
X187960000Y-66040000D02*
X188976000Y-67056000D01*
X187918500Y-66040000D02*
X187960000Y-66040000D01*
X191008000Y-69286000D02*
X191008000Y-68072000D01*
X186944000Y-66548000D02*
X186309000Y-65913000D01*
X191008000Y-68072000D02*
X190500000Y-67564000D01*
X188538420Y-67506010D02*
X187580410Y-66548000D01*
X186309000Y-64688000D02*
X186309000Y-65659000D01*
X186309000Y-65913000D02*
X186592990Y-66196990D01*
X190500000Y-67564000D02*
X190442010Y-67506010D01*
X190442010Y-67506010D02*
X188538420Y-67506010D01*
X187580410Y-66548000D02*
X186944000Y-66548000D01*
X186309000Y-65913000D02*
X186309000Y-65659000D01*
X188468000Y-68072000D02*
X187452000Y-67056000D01*
X187452000Y-67056000D02*
X185548410Y-67056000D01*
X185548410Y-67056000D02*
X185039000Y-66546590D01*
X185039000Y-64688000D02*
X185039000Y-65857000D01*
X188468000Y-69286000D02*
X188468000Y-68072000D01*
X185039000Y-66546590D02*
X185039000Y-65857000D01*
X183769000Y-64688000D02*
X183769000Y-65913000D01*
X183769000Y-65913000D02*
X185928000Y-68072000D01*
X185928000Y-68072000D02*
X185928000Y-69286000D01*
X182838500Y-66040000D02*
X182880000Y-66040000D01*
X182499000Y-65700500D02*
X182838500Y-66040000D01*
X182880000Y-66040000D02*
X183388000Y-66548000D01*
X183388000Y-66548000D02*
X183388000Y-69286000D01*
X182499000Y-64688000D02*
X182499000Y-65700500D01*
X180848000Y-66081500D02*
X180848000Y-69286000D01*
X181229000Y-64688000D02*
X181229000Y-65700500D01*
X181229000Y-65700500D02*
X180848000Y-66081500D01*
X179959000Y-64688000D02*
X179959000Y-65913000D01*
X178308000Y-67564000D02*
X178308000Y-69286000D01*
X179959000Y-65913000D02*
X178308000Y-67564000D01*
D23*
X156972000Y-79248000D02*
X155956000Y-78232000D01*
X163576000Y-79248000D02*
X156972000Y-79248000D01*
X155956000Y-78232000D02*
X155956000Y-77018000D01*
X171196000Y-86868000D02*
X163576000Y-79248000D01*
X153416000Y-78232000D02*
X155448000Y-80264000D01*
X153416000Y-77018000D02*
X153416000Y-78232000D01*
X166294641Y-84506641D02*
X166294641Y-87197360D01*
X162052000Y-80264000D02*
X166294641Y-84506641D01*
X155448000Y-80264000D02*
X162052000Y-80264000D01*
X163604915Y-85644445D02*
X163604915Y-83848915D01*
X163604915Y-83848915D02*
X161036000Y-81280000D01*
X153924000Y-81280000D02*
X150876000Y-78232000D01*
X161036000Y-81280000D02*
X153924000Y-81280000D01*
X150876000Y-78232000D02*
X150876000Y-77018000D01*
X178816000Y-82804000D02*
X175768000Y-79756000D01*
X175768000Y-79756000D02*
X175768000Y-77018000D01*
X183896000Y-82804000D02*
X178816000Y-82804000D01*
X185772036Y-84680036D02*
X183896000Y-82804000D01*
X186464915Y-85644445D02*
X185772036Y-84951566D01*
X189154641Y-87197360D02*
X189154641Y-84506641D01*
X189154641Y-84506641D02*
X186936010Y-82288010D01*
X178308000Y-78740000D02*
X178308000Y-77018000D01*
X186936010Y-82288010D02*
X181856010Y-82288010D01*
X181856010Y-82288010D02*
X178308000Y-78740000D01*
X189484000Y-81788000D02*
X195072000Y-87376000D01*
X180848000Y-77018000D02*
X180848000Y-78232000D01*
X184404000Y-81788000D02*
X189484000Y-81788000D01*
X180848000Y-78232000D02*
X184404000Y-81788000D01*
D22*
X41148000Y-91440000D02*
X45720000Y-91440000D01*
X49962640Y-95682640D02*
X58241359Y-95682640D01*
X45720000Y-91440000D02*
X49962640Y-95682640D01*
X33564500Y-91440000D02*
X33528000Y-91476500D01*
X41148000Y-91440000D02*
X33564500Y-91440000D01*
X28448000Y-94451500D02*
X33528000Y-94451500D01*
X60284000Y-89840000D02*
X60034000Y-89840000D01*
X61776489Y-91332489D02*
X60284000Y-89840000D01*
X82151511Y-91332489D02*
X61776489Y-91332489D01*
X82894000Y-90590000D02*
X82151511Y-91332489D01*
X82894000Y-89840000D02*
X82894000Y-90590000D01*
X158420000Y-89840000D02*
X159602000Y-89840000D01*
X157256671Y-88676671D02*
X158420000Y-89840000D01*
X182212000Y-89840000D02*
X182462000Y-89840000D01*
X41148000Y-88900000D02*
X32512000Y-88900000D01*
X32512000Y-88900000D02*
X30988000Y-90424000D01*
X30988000Y-90424000D02*
X30988000Y-91440000D01*
X30988000Y-91440000D02*
X29014010Y-93413990D01*
X29014010Y-93413990D02*
X25712010Y-93413990D01*
X20573999Y-98552001D02*
X19812000Y-99314000D01*
X25712010Y-93413990D02*
X20573999Y-98552001D01*
X21587208Y-56642000D02*
X20320000Y-57909208D01*
X22860000Y-56642000D02*
X21587208Y-56642000D01*
X20320000Y-57909208D02*
X20320000Y-80264000D01*
X28956000Y-88900000D02*
X32512000Y-88900000D01*
X20320000Y-80264000D02*
X28956000Y-88900000D01*
X59784000Y-89840000D02*
X60034000Y-89840000D01*
X58184000Y-91440000D02*
X59784000Y-89840000D01*
X47752000Y-91440000D02*
X58184000Y-91440000D01*
X41148000Y-88900000D02*
X45212000Y-88900000D01*
X45212000Y-88900000D02*
X47752000Y-91440000D01*
X128239329Y-88676671D02*
X128524000Y-88392000D01*
X129540000Y-88392000D02*
X129032000Y-88392000D01*
X130048000Y-88392000D02*
X129540000Y-88392000D01*
X131496000Y-89840000D02*
X130048000Y-88392000D01*
X132678000Y-89840000D02*
X131496000Y-89840000D01*
X128524000Y-88392000D02*
X129032000Y-88392000D01*
X129032000Y-88392000D02*
X129478658Y-88392000D01*
X134188000Y-89840000D02*
X132678000Y-89840000D01*
X135351329Y-88676671D02*
X134188000Y-89840000D01*
X85567329Y-88676671D02*
X84404000Y-89840000D01*
X90647329Y-88676671D02*
X85567329Y-88676671D01*
X91440000Y-87884000D02*
X90647329Y-88676671D01*
X92964000Y-87884000D02*
X91440000Y-87884000D01*
X109818000Y-89840000D02*
X108788000Y-89840000D01*
X108788000Y-89840000D02*
X107340000Y-88392000D01*
X107340000Y-88392000D02*
X105156000Y-88392000D01*
X105156000Y-88392000D02*
X104871329Y-88676671D01*
X104871329Y-88676671D02*
X93756671Y-88676671D01*
X84404000Y-89840000D02*
X82894000Y-89840000D01*
X93756671Y-88676671D02*
X92964000Y-87884000D01*
X111328000Y-89840000D02*
X109818000Y-89840000D01*
X112491329Y-88676671D02*
X111328000Y-89840000D01*
X117571329Y-88676671D02*
X112491329Y-88676671D01*
X118364000Y-87884000D02*
X117571329Y-88676671D01*
X119888000Y-87884000D02*
X118364000Y-87884000D01*
X120680671Y-88676671D02*
X119888000Y-87884000D01*
X128239329Y-88676671D02*
X120680671Y-88676671D01*
X156972000Y-88392000D02*
X158420000Y-89840000D01*
X141224000Y-87884000D02*
X142748000Y-87884000D01*
X140716000Y-88392000D02*
X141224000Y-87884000D01*
X142748000Y-87884000D02*
X143540671Y-88676671D01*
X143540671Y-88676671D02*
X155163329Y-88676671D01*
X155163329Y-88676671D02*
X155448000Y-88392000D01*
X155448000Y-88392000D02*
X156972000Y-88392000D01*
X140716000Y-88392000D02*
X140431329Y-88676671D01*
X140431329Y-88676671D02*
X135351329Y-88676671D01*
X161112000Y-89840000D02*
X159602000Y-89840000D01*
X162275329Y-88676671D02*
X161112000Y-89840000D01*
X166908671Y-88676671D02*
X162275329Y-88676671D01*
X167132000Y-88453342D02*
X166908671Y-88676671D01*
X167132000Y-88392000D02*
X167132000Y-88453342D01*
X167640000Y-87884000D02*
X167132000Y-88392000D01*
X169164000Y-87884000D02*
X167640000Y-87884000D01*
X181280000Y-89840000D02*
X179832000Y-88392000D01*
X182462000Y-89840000D02*
X181280000Y-89840000D01*
X179832000Y-88392000D02*
X178308000Y-88392000D01*
X178308000Y-88392000D02*
X178023329Y-88676671D01*
X178023329Y-88676671D02*
X169956671Y-88676671D01*
X169956671Y-88676671D02*
X169164000Y-87884000D01*
X67808653Y-61767847D02*
X56179847Y-61767847D01*
X68580000Y-60996500D02*
X67808653Y-61767847D01*
X55499000Y-61087000D02*
X55499000Y-59264000D01*
X80391000Y-61087000D02*
X80391000Y-59264000D01*
X81071847Y-61767847D02*
X80391000Y-61087000D01*
X92700653Y-61767847D02*
X81071847Y-61767847D01*
X93472000Y-60996500D02*
X92700653Y-61767847D01*
X105283000Y-61087000D02*
X105283000Y-59264000D01*
X117592653Y-61767847D02*
X105963847Y-61767847D01*
X105963847Y-61767847D02*
X105283000Y-61087000D01*
X118364000Y-60996500D02*
X117592653Y-61767847D01*
X130175000Y-61087000D02*
X130175000Y-59264000D01*
X142484653Y-61767847D02*
X130855847Y-61767847D01*
X130855847Y-61767847D02*
X130175000Y-61087000D01*
X143256000Y-60996500D02*
X142484653Y-61767847D01*
X155067000Y-61087000D02*
X155067000Y-59264000D01*
X167376653Y-61767847D02*
X155747847Y-61767847D01*
X155747847Y-61767847D02*
X155067000Y-61087000D01*
X168148000Y-60996500D02*
X167376653Y-61767847D01*
X179959000Y-61087000D02*
X179959000Y-59264000D01*
X192268653Y-61767847D02*
X180639847Y-61767847D01*
X180639847Y-61767847D02*
X179959000Y-61087000D01*
X193040000Y-60996500D02*
X192268653Y-61767847D01*
X69632500Y-60996500D02*
X68580000Y-60996500D01*
X74168000Y-63971500D02*
X72607500Y-63971500D01*
X72607500Y-63971500D02*
X69632500Y-60996500D01*
X179868500Y-60996500D02*
X179959000Y-61087000D01*
X168148000Y-60996500D02*
X179868500Y-60996500D01*
X143256000Y-60960000D02*
X154976500Y-60960000D01*
X118364000Y-60960000D02*
X130084500Y-60960000D01*
X93472000Y-60960000D02*
X105192500Y-60960000D01*
X74168000Y-63971500D02*
X75728500Y-63971500D01*
X77932153Y-61767847D02*
X81071847Y-61767847D01*
X75728500Y-63971500D02*
X77932153Y-61767847D01*
X22860000Y-79502000D02*
X40594153Y-61767847D01*
X55499000Y-61686694D02*
X55580153Y-61767847D01*
X55499000Y-61087000D02*
X55499000Y-61686694D01*
X40594153Y-61767847D02*
X55580153Y-61767847D01*
X55580153Y-61767847D02*
X56179847Y-61767847D01*
X60579000Y-58826500D02*
X60452000Y-58699500D01*
X60579000Y-59264000D02*
X60579000Y-58826500D01*
X85471000Y-58826500D02*
X85344000Y-58699500D01*
X85471000Y-59264000D02*
X85471000Y-58826500D01*
X85344000Y-58699500D02*
X85344000Y-57912000D01*
X84836000Y-57404000D02*
X62992000Y-57404000D01*
X110363000Y-58039000D02*
X110363000Y-59264000D01*
X85344000Y-57912000D02*
X85344000Y-57404000D01*
X84836000Y-57404000D02*
X85344000Y-57404000D01*
X85344000Y-57404000D02*
X85852000Y-57404000D01*
X107188000Y-57404000D02*
X85344000Y-57404000D01*
X110363000Y-57531000D02*
X110236000Y-57404000D01*
X110363000Y-58039000D02*
X110363000Y-57531000D01*
X128778000Y-57404000D02*
X110236000Y-57404000D01*
X110236000Y-57404000D02*
X106934000Y-57404000D01*
X135255000Y-57531000D02*
X135128000Y-57404000D01*
X135255000Y-59264000D02*
X135255000Y-57531000D01*
X150622000Y-57404000D02*
X135128000Y-57404000D01*
X135128000Y-57404000D02*
X128778000Y-57404000D01*
X160147000Y-57531000D02*
X160020000Y-57404000D01*
X160147000Y-59264000D02*
X160147000Y-57531000D01*
X172466000Y-57404000D02*
X160020000Y-57404000D01*
X160020000Y-57404000D02*
X150622000Y-57404000D01*
X185039000Y-57531000D02*
X184912000Y-57404000D01*
X185039000Y-59264000D02*
X185039000Y-57531000D01*
X184912000Y-57404000D02*
X163322000Y-57404000D01*
X30480000Y-56642000D02*
X30480000Y-55880000D01*
X60452000Y-59137000D02*
X60579000Y-59264000D01*
X60579000Y-57531000D02*
X60452000Y-57404000D01*
X60579000Y-59264000D02*
X60579000Y-57531000D01*
X161417000Y-59264000D02*
X161417000Y-60833000D01*
X161417000Y-60833000D02*
X161544000Y-60960000D01*
X186309000Y-59264000D02*
X186309000Y-60833000D01*
X136525000Y-59264000D02*
X136525000Y-60833000D01*
X111633000Y-59264000D02*
X111633000Y-60833000D01*
X86741000Y-59264000D02*
X86741000Y-60833000D01*
X64389000Y-58039000D02*
X64389000Y-59264000D01*
X64516000Y-57912000D02*
X64389000Y-58039000D01*
X82804000Y-57912000D02*
X64516000Y-57912000D01*
X82931000Y-59264000D02*
X82931000Y-58039000D01*
X82931000Y-58039000D02*
X82804000Y-57912000D01*
X107823000Y-59264000D02*
X107823000Y-58039000D01*
X107823000Y-58039000D02*
X107696000Y-57912000D01*
X107696000Y-57912000D02*
X89408000Y-57912000D01*
X89281000Y-58039000D02*
X89281000Y-59264000D01*
X89408000Y-57912000D02*
X89281000Y-58039000D01*
X138176001Y-56678999D02*
X138176000Y-56679000D01*
X58039000Y-57981010D02*
X58039000Y-59264000D01*
X57912000Y-57854010D02*
X58039000Y-57981010D01*
X48954400Y-57854010D02*
X57912000Y-57854010D01*
X48446400Y-58362010D02*
X48954400Y-57854010D01*
X47809990Y-58362010D02*
X48446400Y-58362010D01*
X45212000Y-60960000D02*
X47809990Y-58362010D01*
X37120500Y-94451500D02*
X37592000Y-93980000D01*
X33528000Y-94451500D02*
X37120500Y-94451500D01*
X60452000Y-57404000D02*
X48768000Y-57404000D01*
X48768000Y-57404000D02*
X48260000Y-57912000D01*
X30480000Y-57914792D02*
X30985208Y-58420000D01*
X30480000Y-56642000D02*
X30480000Y-57914792D01*
X47623590Y-57912000D02*
X48260000Y-57912000D01*
X47115590Y-58420000D02*
X47623590Y-57912000D01*
X30985208Y-58420000D02*
X47115590Y-58420000D01*
X61849000Y-55499000D02*
X61976000Y-55372000D01*
X61849000Y-59264000D02*
X61849000Y-55499000D01*
X62992000Y-55372000D02*
X64008000Y-56388000D01*
X61976000Y-55372000D02*
X62992000Y-55372000D01*
X136144000Y-56388000D02*
X136652000Y-56388000D01*
X136144000Y-56388000D02*
X64008000Y-56388000D01*
X186436000Y-56388000D02*
X136144000Y-56388000D01*
X81661000Y-59264000D02*
X81661000Y-60833000D01*
X114173000Y-58039000D02*
X114173000Y-59264000D01*
X114300000Y-57912000D02*
X114173000Y-58039000D01*
X132588000Y-57912000D02*
X114300000Y-57912000D01*
X132715000Y-59264000D02*
X132715000Y-58039000D01*
X132715000Y-58039000D02*
X132588000Y-57912000D01*
X157607000Y-58039000D02*
X157607000Y-59264000D01*
X157480000Y-57912000D02*
X157607000Y-58039000D01*
X139192000Y-57912000D02*
X157480000Y-57912000D01*
X139065000Y-59264000D02*
X139065000Y-58039000D01*
X139065000Y-58039000D02*
X139192000Y-57912000D01*
X131445000Y-59264000D02*
X131445000Y-60833000D01*
M02*
